<?xml version="1.0" encoding="UTF-8" standalone="no"?>
<!-- Created with Inkscape (http://www.inkscape.org/) -->

<svg
   xmlns:dc="http://purl.org/dc/elements/1.1/"
   xmlns:cc="http://creativecommons.org/ns#"
   xmlns:rdf="http://www.w3.org/1999/02/22-rdf-syntax-ns#"
   xmlns:svg="http://www.w3.org/2000/svg"
   xmlns="http://www.w3.org/2000/svg"
   xmlns:sodipodi="http://sodipodi.sourceforge.net/DTD/sodipodi-0.dtd"
   xmlns:inkscape="http://www.inkscape.org/namespaces/inkscape"
   width="171.00133mm"
   height="82.133827mm"
   viewBox="0 0 171.00133 82.133827"
   version="1.1"
   id="svg921"
   sodipodi:docname="dictionary.svg"
   inkscape:version="0.92.3 (2405546, 2018-03-11)">
  <defs
     id="defs915" />
  <sodipodi:namedview
     id="base"
     pagecolor="#ffffff"
     bordercolor="#666666"
     borderopacity="1.0"
     inkscape:pageopacity="0.0"
     inkscape:pageshadow="2"
     inkscape:zoom="0.7"
     inkscape:cx="180.26161"
     inkscape:cy="191.48861"
     inkscape:document-units="mm"
     inkscape:current-layer="layer1"
     showgrid="false"
     fit-margin-top="10"
     fit-margin-left="10"
     fit-margin-right="10"
     fit-margin-bottom="10"
     inkscape:window-width="1853"
     inkscape:window-height="1029"
     inkscape:window-x="67"
     inkscape:window-y="27"
     inkscape:window-maximized="1" />
  <metadata
     id="metadata918">
    <rdf:RDF>
      <cc:Work
         rdf:about="">
        <dc:format>image/svg+xml</dc:format>
        <dc:type
           rdf:resource="http://purl.org/dc/dcmitype/StillImage" />
        <dc:title />
      </cc:Work>
    </rdf:RDF>
  </metadata>
  <g
     inkscape:label="Layer 1"
     inkscape:groupmode="layer"
     id="layer1"
     transform="translate(-0.30875948,-59.53384)">
    <rect
       style="opacity:1;vector-effect:none;fill:#ffffff;fill-opacity:1;stroke:#b3b3b3;stroke-width:0.49670261;stroke-linecap:round;stroke-linejoin:round;stroke-miterlimit:4;stroke-dasharray:none"
       id="rect843"
       width="150.50462"
       height="17.910572"
       x="10.557111"
       y="92.955093" />
    <g
       aria-label="{'name': 'jess', 'age': 24}"
       transform="matrix(0.26458333,0,0,0.26458333,6.6194966,44.948383)"
       style="font-style:normal;font-weight:normal;font-size:40px;line-height:1.25;font-family:sans-serif;letter-spacing:0px;word-spacing:0px;fill:#000000;fill-opacity:1;stroke:none"
       id="flowRoot815">
      <path
         d="m 54.734375,230.19336 v 2.8125 h -1.210938 q -4.863281,0 -6.523437,-1.44531 -1.640625,-1.44532 -1.640625,-5.76172 v -4.66797 q 0,-2.94922 -1.054688,-4.08203 -1.054687,-1.13281 -3.828125,-1.13281 h -1.191406 v -2.79297 h 1.191406 q 2.792969,0 3.828125,-1.11328 1.054688,-1.13282 1.054688,-4.04297 v -4.6875 q 0,-4.31641 1.640625,-5.74219 1.660156,-1.44531 6.523437,-1.44531 h 1.210938 v 2.79297 H 53.40625 q -2.753906,0 -3.59375,0.85937 -0.839844,0.85938 -0.839844,3.61328 v 4.84375 q 0,3.06641 -0.898437,4.45313 -0.878907,1.38672 -3.027344,1.875 2.167969,0.52734 3.046875,1.91406 0.878906,1.38672 0.878906,4.43359 v 4.84375 q 0,2.75391 0.839844,3.61328 0.839844,0.85938 3.59375,0.85938 z"
         style=""
         id="path2561" />
      <path
         d="m 66.921875,197.32227 v 10.83984 h -3.320313 v -10.83984 z"
         style="fill:#ba2121;fill-opacity:1"
         id="path2563" />
      <path
         d="m 92.722656,213.2793 v 13.20312 h -3.59375 v -13.08594 q 0,-3.10546 -1.210937,-4.64843 -1.210938,-1.54297 -3.632813,-1.54297 -2.910156,0 -4.589844,1.85547 -1.679687,1.85547 -1.679687,5.05859 v 12.36328 h -3.613281 v -21.875 h 3.613281 v 3.39844 q 1.289062,-1.97266 3.027344,-2.94922 1.757812,-0.97656 4.042968,-0.97656 3.769532,0 5.703125,2.34375 1.933594,2.32422 1.933594,6.85547 z"
         style="fill:#ba2121;fill-opacity:1"
         id="path2565" />
      <path
         d="m 109.87109,215.48633 q -4.35546,0 -6.03515,0.99609 -1.67969,0.9961 -1.67969,3.39844 0,1.91406 1.25,3.04687 1.26953,1.11329 3.4375,1.11329 2.98828,0 4.78516,-2.10938 1.8164,-2.12891 1.8164,-5.64453 v -0.80078 z m 7.16797,-1.48438 v 12.48047 h -3.59375 v -3.32031 q -1.23047,1.99219 -3.0664,2.94922 -1.83594,0.9375 -4.49219,0.9375 -3.35938,0 -5.35156,-1.875 -1.97266,-1.89453 -1.97266,-5.0586 0,-3.6914 2.46094,-5.5664 2.48047,-1.875 7.38281,-1.875 h 5.03906 v -0.35156 q 0,-2.48047 -1.64062,-3.82813 -1.6211,-1.36719 -4.57031,-1.36719 -1.875,0 -3.65235,0.44922 -1.77734,0.44922 -3.41797,1.34766 v -3.32031 q 1.97266,-0.76172 3.82813,-1.13282 1.85547,-0.39062 3.61328,-0.39062 4.74609,0 7.08984,2.46094 2.34375,2.46093 2.34375,7.46093 z"
         style="fill:#ba2121;fill-opacity:1"
         id="path2567" />
      <path
         d="m 141.49219,208.80664 q 1.34765,-2.42187 3.22265,-3.57422 1.875,-1.15234 4.41407,-1.15234 3.41796,0 5.27343,2.40234 1.85547,2.38281 1.85547,6.79688 v 13.20312 h -3.61328 v -13.08594 q 0,-3.14453 -1.11328,-4.66796 -1.11328,-1.52344 -3.39844,-1.52344 -2.79297,0 -4.41406,1.85547 -1.62109,1.85547 -1.62109,5.05859 v 12.36328 h -3.61329 v -13.08594 q 0,-3.16406 -1.11328,-4.66796 -1.11328,-1.52344 -3.4375,-1.52344 -2.7539,0 -4.375,1.875 -1.62109,1.85547 -1.62109,5.03906 v 12.36328 h -3.61328 v -21.875 h 3.61328 v 3.39844 q 1.23047,-2.01172 2.94922,-2.96875 1.71875,-0.95703 4.08203,-0.95703 2.38281,0 4.04297,1.21094 1.67969,1.21093 2.48047,3.51562 z"
         style="fill:#ba2121;fill-opacity:1"
         id="path2569" />
      <path
         d="m 182.15625,214.64648 v 1.75782 h -16.52344 q 0.23438,3.71093 2.22656,5.66406 2.01172,1.93359 5.58594,1.93359 2.07031,0 4.00391,-0.50781 1.95312,-0.50781 3.86719,-1.52344 v 3.39844 q -1.9336,0.82031 -3.96485,1.25 -2.03125,0.42969 -4.12109,0.42969 -5.23438,0 -8.30078,-3.04688 -3.04688,-3.04687 -3.04688,-8.24218 0,-5.3711 2.89063,-8.51563 2.91015,-3.16406 7.83203,-3.16406 4.41406,0 6.97265,2.85156 2.57813,2.83203 2.57813,7.71484 z m -3.59375,-1.05468 q -0.0391,-2.94922 -1.66016,-4.70703 -1.60156,-1.75782 -4.25781,-1.75782 -3.00781,0 -4.82422,1.69922 -1.79687,1.69922 -2.07031,4.78516 z"
         style="fill:#ba2121;fill-opacity:1"
         id="path2571" />
      <path
         d="m 191.45312,197.32227 v 10.83984 h -3.32031 v -10.83984 z"
         style="fill:#ba2121;fill-opacity:1"
         id="path2573" />
      <path
         d="m 199.98828,221.52148 h 4.12109 v 4.96094 h -4.12109 z m 0,-15.72265 h 4.12109 v 4.96094 h -4.12109 z"
         style=""
         id="path2575" />
      <path
         d="m 228.71875,197.32227 v 10.83984 h -3.32031 v -10.83984 z"
         style="fill:#ba2121;fill-opacity:1"
         id="path2577" />
      <path
         d="m 236.33594,204.60742 h 3.59375 v 22.26563 q 0,4.17968 -1.60157,6.05468 -1.58203,1.875 -5.11718,1.875 h -1.36719 v -3.04687 h 0.95703 q 2.05078,0 2.79297,-0.95703 0.74219,-0.9375 0.74219,-3.92578 z m 0,-8.51562 h 3.59375 v 4.55078 h -3.59375 z"
         style="fill:#ba2121;fill-opacity:1"
         id="path2579" />
      <path
         d="m 266.14062,214.64648 v 1.75782 h -16.52343 q 0.23437,3.71093 2.22656,5.66406 2.01172,1.93359 5.58594,1.93359 2.07031,0 4.0039,-0.50781 1.95313,-0.50781 3.86719,-1.52344 v 3.39844 q -1.93359,0.82031 -3.96484,1.25 -2.03125,0.42969 -4.1211,0.42969 -5.23437,0 -8.30078,-3.04688 -3.04687,-3.04687 -3.04687,-8.24218 0,-5.3711 2.89062,-8.51563 2.91016,-3.16406 7.83203,-3.16406 4.41407,0 6.97266,2.85156 2.57812,2.83203 2.57812,7.71484 z m -3.59375,-1.05468 q -0.0391,-2.94922 -1.66015,-4.70703 -1.60156,-1.75782 -4.25781,-1.75782 -3.00782,0 -4.82422,1.69922 -1.79688,1.69922 -2.07032,4.78516 z"
         style="fill:#ba2121;fill-opacity:1"
         id="path2581" />
      <path
         d="m 285.98437,205.25195 v 3.39844 q -1.52343,-0.78125 -3.16406,-1.17187 -1.64062,-0.39063 -3.39844,-0.39063 -2.67578,0 -4.02343,0.82031 -1.32813,0.82032 -1.32813,2.46094 0,1.25 0.95703,1.97266 0.95703,0.70312 3.84766,1.34765 l 1.23047,0.27344 q 3.82812,0.82031 5.42969,2.32422 1.62109,1.48437 1.62109,4.16016 0,3.04687 -2.42188,4.82421 -2.40234,1.77735 -6.62109,1.77735 -1.75781,0 -3.67187,-0.35156 -1.89454,-0.33204 -4.00391,-1.01563 v -3.71094 q 1.99219,1.03516 3.92578,1.5625 1.93359,0.50782 3.82813,0.50782 2.53906,0 3.90625,-0.85938 1.36718,-0.87891 1.36718,-2.46094 0,-1.46484 -0.99609,-2.24609 -0.97656,-0.78125 -4.31641,-1.50391 l -1.25,-0.29297 q -3.33984,-0.70312 -4.82422,-2.14843 -1.48437,-1.46485 -1.48437,-4.00391 0,-3.08594 2.1875,-4.76562 2.1875,-1.67969 6.21094,-1.67969 1.99218,0 3.75,0.29297 1.75781,0.29297 3.24218,0.8789 z"
         style="fill:#ba2121;fill-opacity:1"
         id="path2583" />
      <path
         d="m 306.84375,205.25195 v 3.39844 q -1.52344,-0.78125 -3.16406,-1.17187 -1.64063,-0.39063 -3.39844,-0.39063 -2.67578,0 -4.02344,0.82031 -1.32812,0.82032 -1.32812,2.46094 0,1.25 0.95703,1.97266 0.95703,0.70312 3.84765,1.34765 l 1.23047,0.27344 q 3.82813,0.82031 5.42969,2.32422 1.62109,1.48437 1.62109,4.16016 0,3.04687 -2.42187,4.82421 -2.40234,1.77735 -6.62109,1.77735 -1.75782,0 -3.67188,-0.35156 -1.89453,-0.33204 -4.00391,-1.01563 v -3.71094 q 1.99219,1.03516 3.92579,1.5625 1.93359,0.50782 3.82812,0.50782 2.53906,0 3.90625,-0.85938 1.36719,-0.87891 1.36719,-2.46094 0,-1.46484 -0.9961,-2.24609 -0.97656,-0.78125 -4.3164,-1.50391 l -1.25,-0.29297 q -3.33985,-0.70312 -4.82422,-2.14843 -1.48438,-1.46485 -1.48438,-4.00391 0,-3.08594 2.1875,-4.76562 2.1875,-1.67969 6.21094,-1.67969 1.99219,0 3.75,0.29297 1.75781,0.29297 3.24219,0.8789 z"
         style="fill:#ba2121;fill-opacity:1"
         id="path2585" />
      <path
         d="m 317.15625,197.32227 v 10.83984 h -3.32031 v -10.83984 z"
         style="fill:#ba2121;fill-opacity:1"
         id="path2587" />
      <path
         d="m 325.69141,221.52148 h 4.12109 v 3.35938 l -3.20313,6.25 h -2.51953 l 1.60157,-6.25 z"
         style=""
         id="path2589" />
      <path
         d="m 353.64062,197.32227 v 10.83984 h -3.32031 v -10.83984 z"
         style="fill:#ba2121;fill-opacity:1"
         id="path2591" />
      <path
         d="m 371.19922,215.48633 q -4.35547,0 -6.03516,0.99609 -1.67969,0.9961 -1.67969,3.39844 0,1.91406 1.25,3.04687 1.26954,1.11329 3.4375,1.11329 2.98829,0 4.78516,-2.10938 1.81641,-2.12891 1.81641,-5.64453 v -0.80078 z m 7.16797,-1.48438 v 12.48047 h -3.59375 v -3.32031 q -1.23047,1.99219 -3.06641,2.94922 -1.83594,0.9375 -4.49219,0.9375 -3.35937,0 -5.35156,-1.875 -1.97266,-1.89453 -1.97266,-5.0586 0,-3.6914 2.46094,-5.5664 2.48047,-1.875 7.38281,-1.875 h 5.03907 v -0.35156 q 0,-2.48047 -1.64063,-3.82813 -1.62109,-1.36719 -4.57031,-1.36719 -1.875,0 -3.65234,0.44922 -1.77735,0.44922 -3.41797,1.34766 v -3.32031 q 1.97265,-0.76172 3.82812,-1.13282 1.85547,-0.39062 3.61328,-0.39062 4.7461,0 7.08985,2.46094 2.34375,2.46093 2.34375,7.46093 z"
         style="fill:#ba2121;fill-opacity:1"
         id="path2593" />
      <path
         d="m 400.18359,215.29102 q 0,-3.90625 -1.62109,-6.05469 -1.60156,-2.14844 -4.51172,-2.14844 -2.89062,0 -4.51172,2.14844 -1.60156,2.14844 -1.60156,6.05469 0,3.88671 1.60156,6.03515 1.6211,2.14844 4.51172,2.14844 2.91016,0 4.51172,-2.14844 1.62109,-2.14844 1.62109,-6.03515 z m 3.59375,8.47656 q 0,5.58594 -2.48047,8.30078 -2.48046,2.73437 -7.59765,2.73437 -1.89453,0 -3.57422,-0.29296 -1.67969,-0.27344 -3.26172,-0.85938 v -3.49609 q 1.58203,0.85937 3.125,1.26953 1.54297,0.41015 3.14453,0.41015 3.53516,0 5.29297,-1.85546 1.75781,-1.83594 1.75781,-5.56641 v -1.77734 q -1.11328,1.93359 -2.85156,2.89062 -1.73828,0.95703 -4.16016,0.95703 -4.02343,0 -6.48437,-3.0664 -2.46094,-3.06641 -2.46094,-8.125 0,-5.07813 2.46094,-8.14454 2.46094,-3.0664 6.48437,-3.0664 2.42188,0 4.16016,0.95703 1.73828,0.95703 2.85156,2.89062 v -3.32031 h 3.59375 z"
         style="fill:#ba2121;fill-opacity:1"
         id="path2595" />
      <path
         d="m 429.89062,214.64648 v 1.75782 h -16.52343 q 0.23437,3.71093 2.22656,5.66406 2.01172,1.93359 5.58594,1.93359 2.07031,0 4.0039,-0.50781 1.95313,-0.50781 3.86719,-1.52344 v 3.39844 q -1.93359,0.82031 -3.96484,1.25 -2.03125,0.42969 -4.1211,0.42969 -5.23437,0 -8.30078,-3.04688 -3.04687,-3.04687 -3.04687,-8.24218 0,-5.3711 2.89062,-8.51563 2.91016,-3.16406 7.83203,-3.16406 4.41407,0 6.97266,2.85156 2.57812,2.83203 2.57812,7.71484 z m -3.59375,-1.05468 q -0.0391,-2.94922 -1.66015,-4.70703 -1.60156,-1.75782 -4.25781,-1.75782 -3.00782,0 -4.82422,1.69922 -1.79688,1.69922 -2.07032,4.78516 z"
         style="fill:#ba2121;fill-opacity:1"
         id="path2597" />
      <path
         d="m 439.1875,197.32227 v 10.83984 h -3.32031 v -10.83984 z"
         style="fill:#ba2121;fill-opacity:1"
         id="path2599" />
      <path
         d="m 447.72266,221.52148 h 4.12109 v 4.96094 h -4.12109 z m 0,-15.72265 h 4.12109 v 4.96094 h -4.12109 z"
         style=""
         id="path2601" />
      <path
         d="m 476.96094,223.16211 h 13.76953 v 3.32031 h -18.51563 v -3.32031 q 2.2461,-2.32422 6.11328,-6.23047 3.88672,-3.92578 4.88282,-5.05859 1.89453,-2.12891 2.63672,-3.59375 0.76171,-1.48438 0.76171,-2.91016 0,-2.32422 -1.64062,-3.78906 -1.62109,-1.46485 -4.23828,-1.46485 -1.85547,0 -3.92578,0.64454 -2.05078,0.64453 -4.39453,1.95312 v -3.98437 q 2.38281,-0.95704 4.45312,-1.44532 2.07031,-0.48828 3.78906,-0.48828 4.53125,0 7.22657,2.26563 2.69531,2.26562 2.69531,6.05468 0,1.79688 -0.6836,3.41797 -0.66406,1.60157 -2.4414,3.78907 -0.48828,0.5664 -3.10547,3.28125 -2.61719,2.69531 -7.38281,7.55859 z"
         style="fill:#008800;fill-opacity:1"
         id="path2603" />
      <path
         d="m 509.87109,200.75977 -9.96093,15.5664 h 9.96093 z m -1.03515,-3.4375 h 4.96093 v 19.0039 h 4.16016 v 3.28125 h -4.16016 v 6.875 h -3.92578 v -6.875 h -13.16406 v -3.80859 z"
         style="fill:#008800;fill-opacity:1"
         id="path2605" />
      <path
         d="m 525.22266,230.19336 h 1.36718 q 2.73438,0 3.55469,-0.83984 0.83984,-0.83985 0.83984,-3.63282 v -4.84375 q 0,-3.04687 0.87891,-4.43359 0.87891,-1.38672 3.04688,-1.91406 -2.16797,-0.48828 -3.04688,-1.875 -0.87891,-1.38672 -0.87891,-4.45313 v -4.84375 q 0,-2.77344 -0.83984,-3.61328 -0.82031,-0.85937 -3.55469,-0.85937 h -1.36718 v -2.79297 h 1.23046 q 4.86329,0 6.48438,1.44531 1.64062,1.42578 1.64062,5.74219 v 4.6875 q 0,2.91015 1.05469,4.04297 1.05469,1.11328 3.82813,1.11328 h 1.21093 v 2.79297 h -1.21093 q -2.77344,0 -3.82813,1.13281 -1.05469,1.13281 -1.05469,4.08203 v 4.66797 q 0,4.3164 -1.64062,5.76172 -1.62109,1.44531 -6.48438,1.44531 h -1.23046 z"
         style=""
         id="path2607" />
    </g>
    <text
       xml:space="preserve"
       style="font-style:normal;font-weight:normal;font-size:10.58333302px;line-height:1.25;font-family:sans-serif;letter-spacing:0px;word-spacing:0px;fill:#000000;fill-opacity:1;stroke:none;stroke-width:0.26458332"
       x="33.031162"
       y="75.966522"
       id="text841"><tspan
         sodipodi:role="line"
         id="tspan839"
         x="33.031162"
         y="75.966522"
         style="font-size:8.46666622px;stroke-width:0.26458332">key</tspan></text>
    <path
       style="opacity:1;vector-effect:none;fill:none;fill-opacity:1;stroke:#b3b3b3;stroke-width:0.52899998;stroke-linecap:round;stroke-linejoin:round;stroke-miterlimit:4;stroke-dasharray:none"
       d="m 22.645687,90.518596 v -5.027077 h 36.5125 v 5.059177"
       id="path845"
       inkscape:connector-curvature="0"
       sodipodi:nodetypes="cccc" />
    <path
       style="opacity:1;vector-effect:none;fill:#ffffff;fill-opacity:1;stroke:#b3b3b3;stroke-width:0.52899998;stroke-linecap:round;stroke-linejoin:round;stroke-miterlimit:4;stroke-dasharray:none"
       d="M 40.621386,85.059659 V 78.885732"
       id="path847"
       inkscape:connector-curvature="0" />
    <text
       xml:space="preserve"
       style="font-style:normal;font-weight:normal;font-size:10.58333302px;line-height:1.25;font-family:sans-serif;letter-spacing:0px;word-spacing:0px;fill:#000000;fill-opacity:1;stroke:none;stroke-width:0.26458332"
       x="72.085281"
       y="131.34277"
       id="text841-2"><tspan
         sodipodi:role="line"
         id="tspan839-7"
         x="72.085281"
         y="131.34277"
         style="font-size:8.46666622px;stroke-width:0.26458332">value</tspan></text>
    <path
       style="opacity:1;vector-effect:none;fill:none;fill-opacity:1;stroke:#b3b3b3;stroke-width:0.52899998;stroke-linecap:round;stroke-linejoin:round;stroke-miterlimit:4;stroke-dasharray:none"
       d="m 64.874804,112.59829 v 5.02708 h 26.987501 v -5.05918"
       id="path845-0"
       inkscape:connector-curvature="0"
       sodipodi:nodetypes="cccc" />
    <path
       style="opacity:1;vector-effect:none;fill:#ffffff;fill-opacity:1;stroke:#b3b3b3;stroke-width:0.52899998;stroke-linecap:round;stroke-linejoin:round;stroke-miterlimit:4;stroke-dasharray:none"
       d="m 79.675503,118.05723 v 6.17392"
       id="path847-9"
       inkscape:connector-curvature="0" />
    <text
       xml:space="preserve"
       style="font-style:normal;font-weight:normal;font-size:10.58333302px;line-height:1.25;font-family:sans-serif;letter-spacing:0px;word-spacing:0px;fill:#000000;fill-opacity:1;stroke:none;stroke-width:0.26458332"
       x="103.28265"
       y="76.171608"
       id="text841-3"><tspan
         sodipodi:role="line"
         id="tspan839-6"
         x="103.28265"
         y="76.171608"
         style="font-size:8.46666622px;stroke-width:0.26458332">key</tspan></text>
    <path
       style="opacity:1;vector-effect:none;fill:none;fill-opacity:1;stroke:#b3b3b3;stroke-width:0.52899998;stroke-linecap:round;stroke-linejoin:round;stroke-miterlimit:4;stroke-dasharray:none"
       d="m 98.718,90.723616 v -5.027067 h 25.40017 v 5.059167"
       id="path845-06"
       inkscape:connector-curvature="0"
       sodipodi:nodetypes="cccc" />
    <path
       style="opacity:1;vector-effect:none;fill:#ffffff;fill-opacity:1;stroke:#b3b3b3;stroke-width:0.52899998;stroke-linecap:round;stroke-linejoin:round;stroke-miterlimit:4;stroke-dasharray:none"
       d="M 110.87292,85.264689 V 79.090762"
       id="path847-2"
       inkscape:connector-curvature="0" />
    <text
       xml:space="preserve"
       style="font-style:normal;font-weight:normal;font-size:10.58333302px;line-height:1.25;font-family:sans-serif;letter-spacing:0px;word-spacing:0px;fill:#000000;fill-opacity:1;stroke:none;stroke-width:0.26458332"
       x="129.63672"
       y="131.54778"
       id="text841-2-6"><tspan
         sodipodi:role="line"
         id="tspan839-7-1"
         x="129.63672"
         y="131.54778"
         style="font-size:8.46666622px;stroke-width:0.26458332">value</tspan></text>
    <path
       style="opacity:1;vector-effect:none;fill:none;fill-opacity:1;stroke:#b3b3b3;stroke-width:0.52899998;stroke-linecap:round;stroke-linejoin:round;stroke-miterlimit:4;stroke-dasharray:none"
       d="m 130.89311,112.80331 v 5.02708 h 12.7 v -5.05918"
       id="path845-0-8"
       inkscape:connector-curvature="0"
       sodipodi:nodetypes="cccc" />
    <path
       style="opacity:1;vector-effect:none;fill:#ffffff;fill-opacity:1;stroke:#b3b3b3;stroke-width:0.52899998;stroke-linecap:round;stroke-linejoin:round;stroke-miterlimit:4;stroke-dasharray:none"
       d="m 137.22703,118.26225 v 6.17392"
       id="path847-9-7"
       inkscape:connector-curvature="0" />
  </g>
</svg>
