<?xml version="1.0" encoding="UTF-8" standalone="no"?>
<!-- Created with Inkscape (http://www.inkscape.org/) -->

<svg
   xmlns:dc="http://purl.org/dc/elements/1.1/"
   xmlns:cc="http://creativecommons.org/ns#"
   xmlns:rdf="http://www.w3.org/1999/02/22-rdf-syntax-ns#"
   xmlns:svg="http://www.w3.org/2000/svg"
   xmlns="http://www.w3.org/2000/svg"
   xmlns:sodipodi="http://sodipodi.sourceforge.net/DTD/sodipodi-0.dtd"
   xmlns:inkscape="http://www.inkscape.org/namespaces/inkscape"
   width="223.41891mm"
   height="75.187317mm"
   viewBox="0 0 223.41891 75.187317"
   version="1.1"
   id="svg921"
   inkscape:version="0.92.3 (2405546, 2018-03-11)"
   sodipodi:docname="for_loop.svg">
  <defs
     id="defs915" />
  <sodipodi:namedview
     id="base"
     pagecolor="#ffffff"
     bordercolor="#666666"
     borderopacity="1.0"
     inkscape:pageopacity="0.0"
     inkscape:pageshadow="2"
     inkscape:zoom="0.7"
     inkscape:cx="335.51819"
     inkscape:cy="165.23407"
     inkscape:document-units="mm"
     inkscape:current-layer="layer1"
     showgrid="false"
     fit-margin-top="10"
     fit-margin-left="10"
     fit-margin-right="10"
     fit-margin-bottom="10"
     inkscape:window-width="1853"
     inkscape:window-height="1029"
     inkscape:window-x="67"
     inkscape:window-y="27"
     inkscape:window-maximized="1" />
  <metadata
     id="metadata918">
    <rdf:RDF>
      <cc:Work
         rdf:about="">
        <dc:format>image/svg+xml</dc:format>
        <dc:type
           rdf:resource="http://purl.org/dc/dcmitype/StillImage" />
        <dc:title />
      </cc:Work>
    </rdf:RDF>
  </metadata>
  <g
     inkscape:label="Layer 1"
     inkscape:groupmode="layer"
     id="layer1"
     transform="translate(35.0999,-59.53384)">
    <rect
       style="opacity:1;vector-effect:none;fill:#ffffff;fill-opacity:1;stroke:#b3b3b3;stroke-width:0.69256639;stroke-linecap:round;stroke-linejoin:round;stroke-miterlimit:4;stroke-dasharray:none"
       id="rect843"
       width="167.31769"
       height="31.32185"
       x="10.655044"
       y="93.053024" />
    <g
       aria-label="for number in range(100):
    print(number)"
       transform="matrix(0.26458333,0,0,0.26458333,6.6194966,44.948383)"
       style="font-style:normal;font-weight:normal;font-size:40px;line-height:1.25;font-family:sans-serif;letter-spacing:0px;word-spacing:0px;fill:#000000;fill-opacity:1;stroke:none"
       id="flowRoot815">
      <path
         d="m 49.128906,196.0918 v 2.98828 h -3.4375 q -1.933594,0 -2.695312,0.78125 -0.742188,0.78125 -0.742188,2.8125 v 1.93359 h 5.917969 v 2.79297 h -5.917969 v 19.08203 h -3.613281 v -19.08203 h -3.4375 v -2.79297 h 3.4375 v -1.52344 q 0,-3.65234 1.699219,-5.3125 1.699218,-1.67968 5.390625,-1.67968 z"
         style="fill:#008000;fill-opacity:1"
         id="path2610" />
      <path
         d="m 60.59375,207.12695 q -2.890625,0 -4.570313,2.26563 -1.679687,2.24609 -1.679687,6.17187 0,3.92578 1.660156,6.19141 1.679688,2.24609 4.589844,2.24609 2.871094,0 4.550781,-2.26562 1.679688,-2.26563 1.679688,-6.17188 0,-3.88672 -1.679688,-6.15234 -1.679687,-2.28516 -4.550781,-2.28516 z m 0,-3.04687 q 4.6875,0 7.363281,3.04687 2.675781,3.04688 2.675781,8.4375 0,5.3711 -2.675781,8.4375 -2.675781,3.04688 -7.363281,3.04688 -4.707031,0 -7.382813,-3.04688 -2.65625,-3.0664 -2.65625,-8.4375 0,-5.39062 2.65625,-8.4375 2.675782,-3.04687 7.382813,-3.04687 z"
         style="fill:#008000;fill-opacity:1"
         id="path2612" />
      <path
         d="m 89.246094,207.9668 q -0.605469,-0.35157 -1.328125,-0.50782 -0.703125,-0.17578 -1.5625,-0.17578 -3.046875,0 -4.6875,1.99219 -1.621094,1.97266 -1.621094,5.68359 v 11.52344 h -3.613281 v -21.875 h 3.613281 v 3.39844 q 1.132812,-1.99219 2.949219,-2.94922 1.816406,-0.97656 4.414062,-0.97656 0.371094,0 0.820313,0.0586 0.449218,0.0391 0.996093,0.13672 z"
         style="fill:#008000;fill-opacity:1"
         id="path2614" />
      <path
         d="m 123.97266,213.2793 v 13.20312 h -3.59375 v -13.08594 q 0,-3.10546 -1.21094,-4.64843 -1.21094,-1.54297 -3.63281,-1.54297 -2.91016,0 -4.58985,1.85547 -1.67968,1.85547 -1.67968,5.05859 v 12.36328 h -3.61329 v -21.875 h 3.61329 v 3.39844 q 1.28906,-1.97266 3.02734,-2.94922 1.75781,-0.97656 4.04297,-0.97656 3.76953,0 5.70312,2.34375 1.9336,2.32422 1.9336,6.85547 z"
         style=""
         id="path2616" />
      <path
         d="m 130.80859,217.84961 v -13.24219 h 3.59375 v 13.10547 q 0,3.10547 1.21094,4.66797 1.21094,1.54297 3.63281,1.54297 2.91016,0 4.58985,-1.85547 1.69922,-1.85547 1.69922,-5.05859 v -12.40235 h 3.59375 v 21.875 h -3.59375 v -3.35937 q -1.3086,1.99218 -3.04688,2.96875 -1.71875,0.95703 -4.00391,0.95703 -3.76953,0 -5.72265,-2.34375 -1.95313,-2.34375 -1.95313,-6.85547 z m 9.04297,-13.76953 z"
         style=""
         id="path2618" />
      <path
         d="m 173.60156,208.80664 q 1.34766,-2.42187 3.22266,-3.57422 1.875,-1.15234 4.41406,-1.15234 3.41797,0 5.27344,2.40234 1.85547,2.38281 1.85547,6.79688 v 13.20312 h -3.61328 v -13.08594 q 0,-3.14453 -1.11329,-4.66796 -1.11328,-1.52344 -3.39843,-1.52344 -2.79297,0 -4.41407,1.85547 -1.62109,1.85547 -1.62109,5.05859 v 12.36328 h -3.61328 v -13.08594 q 0,-3.16406 -1.11328,-4.66796 -1.11328,-1.52344 -3.4375,-1.52344 -2.75391,0 -4.375,1.875 -1.6211,1.85547 -1.6211,5.03906 v 12.36328 h -3.61328 v -21.875 h 3.61328 v 3.39844 q 1.23047,-2.01172 2.94922,-2.96875 1.71875,-0.95703 4.08203,-0.95703 2.38282,0 4.04297,1.21094 1.67969,1.21093 2.48047,3.51562 z"
         style=""
         id="path2620" />
      <path
         d="m 211.25781,215.56445 q 0,-3.96484 -1.64062,-6.21093 -1.6211,-2.26563 -4.47266,-2.26563 -2.85156,0 -4.49219,2.26563 -1.62109,2.24609 -1.62109,6.21093 0,3.96485 1.62109,6.23047 1.64063,2.2461 4.49219,2.2461 2.85156,0 4.47266,-2.2461 1.64062,-2.26562 1.64062,-6.23047 z m -12.22656,-7.63672 q 1.13281,-1.95312 2.85156,-2.89062 1.73828,-0.95703 4.14063,-0.95703 3.98437,0 6.46484,3.16406 2.5,3.16406 2.5,8.32031 0,5.15625 -2.5,8.32032 -2.48047,3.16406 -6.46484,3.16406 -2.40235,0 -4.14063,-0.9375 -1.71875,-0.95703 -2.85156,-2.91016 v 3.28125 h -3.61328 V 196.0918 h 3.61328 z"
         style=""
         id="path2622" />
      <path
         d="m 239.65625,214.64648 v 1.75782 h -16.52344 q 0.23438,3.71093 2.22656,5.66406 2.01172,1.93359 5.58594,1.93359 2.07031,0 4.00391,-0.50781 1.95312,-0.50781 3.86719,-1.52344 v 3.39844 q -1.9336,0.82031 -3.96485,1.25 -2.03125,0.42969 -4.12109,0.42969 -5.23438,0 -8.30078,-3.04688 -3.04688,-3.04687 -3.04688,-8.24218 0,-5.3711 2.89063,-8.51563 2.91015,-3.16406 7.83203,-3.16406 4.41406,0 6.97265,2.85156 2.57813,2.83203 2.57813,7.71484 z m -3.59375,-1.05468 q -0.0391,-2.94922 -1.66016,-4.70703 -1.60156,-1.75782 -4.25781,-1.75782 -3.00781,0 -4.82422,1.69922 -1.79687,1.69922 -2.07031,4.78516 z"
         style=""
         id="path2624" />
      <path
         d="m 258.23047,207.9668 q -0.60547,-0.35157 -1.32813,-0.50782 -0.70312,-0.17578 -1.5625,-0.17578 -3.04687,0 -4.6875,1.99219 -1.62109,1.97266 -1.62109,5.68359 v 11.52344 h -3.61328 v -21.875 h 3.61328 v 3.39844 q 1.13281,-1.99219 2.94922,-2.94922 1.8164,-0.97656 4.41406,-0.97656 0.37109,0 0.82031,0.0586 0.44922,0.0391 0.9961,0.13672 z"
         style=""
         id="path2626" />
      <path
         d="m 274.77344,204.60742 h 3.59375 v 21.875 h -3.59375 z m 0,-8.51562 h 3.59375 v 4.55078 h -3.59375 z"
         style="font-style:normal;font-variant:normal;font-weight:normal;font-stretch:normal;font-family:sans-serif;-inkscape-font-specification:sans-serif;fill:#008000;fill-opacity:1"
         id="path2628" />
      <path
         d="m 304.05078,213.2793 v 13.20312 h -3.59375 v -13.08594 q 0,-3.10546 -1.21094,-4.64843 -1.21093,-1.54297 -3.63281,-1.54297 -2.91016,0 -4.58984,1.85547 -1.67969,1.85547 -1.67969,5.05859 v 12.36328 h -3.61328 v -21.875 h 3.61328 v 3.39844 q 1.28906,-1.97266 3.02734,-2.94922 1.75782,-0.97656 4.04297,-0.97656 3.76953,0 5.70313,2.34375 1.93359,2.32422 1.93359,6.85547 z"
         style="font-style:normal;font-variant:normal;font-weight:normal;font-stretch:normal;font-family:sans-serif;-inkscape-font-specification:sans-serif;fill:#008000;fill-opacity:1"
         id="path2630" />
      <path
         d="m 336.66797,207.9668 q -0.60547,-0.35157 -1.32813,-0.50782 -0.70312,-0.17578 -1.5625,-0.17578 -3.04687,0 -4.6875,1.99219 -1.62109,1.97266 -1.62109,5.68359 v 11.52344 h -3.61328 v -21.875 h 3.61328 v 3.39844 q 1.13281,-1.99219 2.94922,-2.94922 1.8164,-0.97656 4.41406,-0.97656 0.37109,0 0.82031,0.0586 0.44922,0.0391 0.9961,0.13672 z"
         style="fill:#008000;fill-opacity:1"
         id="path2632" />
      <path
         d="m 350.41797,215.48633 q -4.35547,0 -6.03516,0.99609 -1.67969,0.9961 -1.67969,3.39844 0,1.91406 1.25,3.04687 1.26954,1.11329 3.4375,1.11329 2.98829,0 4.78516,-2.10938 1.81641,-2.12891 1.81641,-5.64453 v -0.80078 z m 7.16797,-1.48438 v 12.48047 h -3.59375 v -3.32031 q -1.23047,1.99219 -3.06641,2.94922 -1.83594,0.9375 -4.49219,0.9375 -3.35937,0 -5.35156,-1.875 -1.97266,-1.89453 -1.97266,-5.0586 0,-3.6914 2.46094,-5.5664 2.48047,-1.875 7.38281,-1.875 h 5.03907 v -0.35156 q 0,-2.48047 -1.64063,-3.82813 -1.62109,-1.36719 -4.57031,-1.36719 -1.875,0 -3.65234,0.44922 -1.77735,0.44922 -3.41797,1.34766 v -3.32031 q 1.97265,-0.76172 3.82812,-1.13282 1.85547,-0.39062 3.61328,-0.39062 4.7461,0 7.08985,2.46094 2.34375,2.46093 2.34375,7.46093 z"
         style="fill:#008000;fill-opacity:1"
         id="path2634" />
      <path
         d="m 383.19141,213.2793 v 13.20312 h -3.59375 v -13.08594 q 0,-3.10546 -1.21094,-4.64843 -1.21094,-1.54297 -3.63281,-1.54297 -2.91016,0 -4.58985,1.85547 -1.67969,1.85547 -1.67969,5.05859 v 12.36328 h -3.61328 v -21.875 h 3.61328 v 3.39844 q 1.28907,-1.97266 3.02735,-2.94922 1.75781,-0.97656 4.04297,-0.97656 3.76953,0 5.70312,2.34375 1.9336,2.32422 1.9336,6.85547 z"
         style="fill:#008000;fill-opacity:1"
         id="path2636" />
      <path
         d="m 404.79297,215.29102 q 0,-3.90625 -1.6211,-6.05469 -1.60156,-2.14844 -4.51171,-2.14844 -2.89063,0 -4.51172,2.14844 -1.60157,2.14844 -1.60157,6.05469 0,3.88671 1.60157,6.03515 1.62109,2.14844 4.51172,2.14844 2.91015,0 4.51171,-2.14844 1.6211,-2.14844 1.6211,-6.03515 z m 3.59375,8.47656 q 0,5.58594 -2.48047,8.30078 -2.48047,2.73437 -7.59766,2.73437 -1.89453,0 -3.57422,-0.29296 -1.67968,-0.27344 -3.26171,-0.85938 v -3.49609 q 1.58203,0.85937 3.125,1.26953 1.54296,0.41015 3.14453,0.41015 3.53515,0 5.29297,-1.85546 1.75781,-1.83594 1.75781,-5.56641 v -1.77734 q -1.11328,1.93359 -2.85156,2.89062 -1.73829,0.95703 -4.16016,0.95703 -4.02344,0 -6.48438,-3.0664 -2.46093,-3.06641 -2.46093,-8.125 0,-5.07813 2.46093,-8.14454 2.46094,-3.0664 6.48438,-3.0664 2.42187,0 4.16016,0.95703 1.73828,0.95703 2.85156,2.89062 v -3.32031 h 3.59375 z"
         style="fill:#008000;fill-opacity:1"
         id="path2638" />
      <path
         d="m 434.5,214.64648 v 1.75782 h -16.52344 q 0.23438,3.71093 2.22656,5.66406 2.01172,1.93359 5.58594,1.93359 2.07031,0 4.00391,-0.50781 1.95312,-0.50781 3.86719,-1.52344 v 3.39844 q -1.9336,0.82031 -3.96485,1.25 -2.03125,0.42969 -4.12109,0.42969 -5.23438,0 -8.30078,-3.04688 -3.04688,-3.04687 -3.04688,-8.24218 0,-5.3711 2.89063,-8.51563 2.91015,-3.16406 7.83203,-3.16406 4.41406,0 6.97265,2.85156 2.57813,2.83203 2.57813,7.71484 z m -3.59375,-1.05468 q -0.0391,-2.94922 -1.66016,-4.70703 -1.60156,-1.75782 -4.25781,-1.75782 -3.00781,0 -4.82422,1.69922 -1.79687,1.69922 -2.07031,4.78516 z"
         style="fill:#008000;fill-opacity:1"
         id="path2640" />
      <path
         d="m 449.03125,196.13086 q -2.61719,4.49219 -3.88672,8.88672 -1.26953,4.39453 -1.26953,8.90625 0,4.51172 1.26953,8.94531 1.28906,4.41406 3.88672,8.88672 h -3.125 q -2.92969,-4.58984 -4.39453,-9.02344 -1.44531,-4.43359 -1.44531,-8.80859 0,-4.35547 1.44531,-8.76953 1.44531,-4.41407 4.39453,-9.02344 z"
         style=""
         id="path2642" />
      <path
         d="m 457.21484,223.16211 h 6.44532 v -22.24609 l -7.01172,1.40625 v -3.59375 l 6.97265,-1.40625 h 3.94532 v 25.83984 h 6.44531 v 3.32031 h -16.79688 z"
         style="fill:#008800;fill-opacity:1"
         id="path2644" />
      <path
         d="m 490.4375,199.91992 q -3.04688,0 -4.58984,3.00781 -1.52344,2.98829 -1.52344,9.00391 0,5.99609 1.52344,9.00391 1.54296,2.98828 4.58984,2.98828 3.06641,0 4.58984,-2.98828 1.54297,-3.00782 1.54297,-9.00391 0,-6.01562 -1.54297,-9.00391 -1.52343,-3.00781 -4.58984,-3.00781 z m 0,-3.125 q 4.90234,0 7.48047,3.88672 2.59765,3.86719 2.59765,11.25 0,7.36328 -2.59765,11.25 -2.57813,3.86719 -7.48047,3.86719 -4.90234,0 -7.5,-3.86719 -2.57813,-3.88672 -2.57813,-11.25 0,-7.38281 2.57813,-11.25 2.59766,-3.88672 7.5,-3.88672 z"
         style="fill:#008800;fill-opacity:1"
         id="path2646" />
      <path
         d="m 515.90625,199.91992 q -3.04688,0 -4.58984,3.00781 -1.52344,2.98829 -1.52344,9.00391 0,5.99609 1.52344,9.00391 1.54296,2.98828 4.58984,2.98828 3.06641,0 4.58984,-2.98828 1.54297,-3.00782 1.54297,-9.00391 0,-6.01562 -1.54297,-9.00391 -1.52343,-3.00781 -4.58984,-3.00781 z m 0,-3.125 q 4.90234,0 7.48047,3.88672 2.59765,3.86719 2.59765,11.25 0,7.36328 -2.59765,11.25 -2.57813,3.86719 -7.48047,3.86719 -4.90234,0 -7.5,-3.86719 -2.57813,-3.88672 -2.57813,-11.25 0,-7.38281 2.57813,-11.25 2.59766,-3.88672 7.5,-3.88672 z"
         style="fill:#008800;fill-opacity:1"
         id="path2648" />
      <path
         d="m 531.86328,196.13086 h 3.125 q 2.92969,4.60937 4.375,9.02344 1.46484,4.41406 1.46484,8.76953 0,4.375 -1.46484,8.80859 -1.44531,4.4336 -4.375,9.02344 h -3.125 q 2.59766,-4.47266 3.86719,-8.88672 1.28906,-4.43359 1.28906,-8.94531 0,-4.51172 -1.28906,-8.90625 -1.26953,-4.39453 -3.86719,-8.88672 z"
         style=""
         id="path2650" />
      <path
         d="m 548.97266,221.52148 h 4.12109 v 4.96094 h -4.12109 z m 0,-15.72265 h 4.12109 v 4.96094 h -4.12109 z"
         style=""
         id="path2652" />
      <path
         d="m 92.46875,273.20117 v 11.60156 h -3.613281 v -30.19531 h 3.613281 v 3.32031 q 1.132812,-1.95312 2.851562,-2.89062 1.738282,-0.95703 4.140625,-0.95703 3.984373,0 6.464843,3.16406 2.5,3.16406 2.5,8.32031 0,5.15625 -2.5,8.32032 -2.48047,3.16406 -6.464843,3.16406 -2.402343,0 -4.140625,-0.9375 -1.71875,-0.95703 -2.851562,-2.91016 z m 12.22656,-7.63672 q 0,-3.96484 -1.64062,-6.21093 -1.6211,-2.26563 -4.472659,-2.26563 -2.851562,0 -4.492187,2.26563 -1.621094,2.24609 -1.621094,6.21093 0,3.96485 1.621094,6.23047 1.640625,2.2461 4.492187,2.2461 2.851559,0 4.472659,-2.2461 1.64062,-2.26562 1.64062,-6.23047 z"
         style="fill:#008000;fill-opacity:1"
         id="path2654" />
      <path
         d="m 127.05859,257.9668 q -0.60546,-0.35157 -1.32812,-0.50782 -0.70313,-0.17578 -1.5625,-0.17578 -3.04688,0 -4.6875,1.99219 -1.62109,1.97266 -1.62109,5.68359 v 11.52344 h -3.61329 v -21.875 h 3.61329 v 3.39844 q 1.13281,-1.99219 2.94921,-2.94922 1.81641,-0.97656 4.41407,-0.97656 0.37109,0 0.82031,0.0586 0.44922,0.0391 0.99609,0.13672 z"
         style="fill:#008000;fill-opacity:1"
         id="path2656" />
      <path
         d="m 130.86719,254.60742 h 3.59375 v 21.875 h -3.59375 z m 0,-8.51562 h 3.59375 v 4.55078 h -3.59375 z"
         style="fill:#008000;fill-opacity:1"
         id="path2658" />
      <path
         d="m 160.14453,263.2793 v 13.20312 h -3.59375 v -13.08594 q 0,-3.10546 -1.21094,-4.64843 -1.21093,-1.54297 -3.63281,-1.54297 -2.91016,0 -4.58984,1.85547 -1.67969,1.85547 -1.67969,5.05859 v 12.36328 h -3.61328 v -21.875 h 3.61328 v 3.39844 q 1.28906,-1.97266 3.02734,-2.94922 1.75782,-0.97656 4.04297,-0.97656 3.76953,0 5.70313,2.34375 1.93359,2.32422 1.93359,6.85547 z"
         style="fill:#008000;fill-opacity:1"
         id="path2660" />
      <path
         d="m 170.90625,248.39648 v 6.21094 h 7.40234 v 2.79297 h -7.40234 v 11.875 q 0,2.67578 0.72266,3.4375 0.74218,0.76172 2.98828,0.76172 h 3.6914 v 3.00781 h -3.6914 q -4.16016,0 -5.74219,-1.54297 -1.58203,-1.5625 -1.58203,-5.66406 v -11.875 h -2.63672 v -2.79297 h 2.63672 v -6.21094 z"
         style="fill:#008000;fill-opacity:1"
         id="path2662" />
      <path
         d="m 191.6875,246.13086 q -2.61719,4.49219 -3.88672,8.88672 -1.26953,4.39453 -1.26953,8.90625 0,4.51172 1.26953,8.94531 1.28906,4.41406 3.88672,8.88672 h -3.125 q -2.92969,-4.58984 -4.39453,-9.02344 -1.44531,-4.43359 -1.44531,-8.80859 0,-4.35547 1.44531,-8.76953 1.44531,-4.41407 4.39453,-9.02344 z"
         style="fill:#008800;fill-opacity:1"
         id="path2664" />
      <path
         d="m 216.86328,263.2793 v 13.20312 h -3.59375 v -13.08594 q 0,-3.10546 -1.21094,-4.64843 -1.21093,-1.54297 -3.63281,-1.54297 -2.91016,0 -4.58984,1.85547 -1.67969,1.85547 -1.67969,5.05859 v 12.36328 h -3.61328 v -21.875 h 3.61328 v 3.39844 q 1.28906,-1.97266 3.02734,-2.94922 1.75782,-0.97656 4.04297,-0.97656 3.76953,0 5.70313,2.34375 1.93359,2.32422 1.93359,6.85547 z"
         style=""
         id="path2666" />
      <path
         d="m 223.69922,267.84961 v -13.24219 h 3.59375 v 13.10547 q 0,3.10547 1.21094,4.66797 1.21093,1.54297 3.63281,1.54297 2.91015,0 4.58984,-1.85547 1.69922,-1.85547 1.69922,-5.05859 v -12.40235 h 3.59375 v 21.875 h -3.59375 v -3.35937 q -1.30859,1.99218 -3.04687,2.96875 -1.71875,0.95703 -4.00391,0.95703 -3.76953,0 -5.72266,-2.34375 -1.95312,-2.34375 -1.95312,-6.85547 z m 9.04297,-13.76953 z"
         style=""
         id="path2668" />
      <path
         d="m 266.49219,258.80664 q 1.34765,-2.42187 3.22265,-3.57422 1.875,-1.15234 4.41407,-1.15234 3.41796,0 5.27343,2.40234 1.85547,2.38281 1.85547,6.79688 v 13.20312 h -3.61328 v -13.08594 q 0,-3.14453 -1.11328,-4.66796 -1.11328,-1.52344 -3.39844,-1.52344 -2.79297,0 -4.41406,1.85547 -1.62109,1.85547 -1.62109,5.05859 v 12.36328 h -3.61329 v -13.08594 q 0,-3.16406 -1.11328,-4.66796 -1.11328,-1.52344 -3.4375,-1.52344 -2.7539,0 -4.375,1.875 -1.62109,1.85547 -1.62109,5.03906 v 12.36328 h -3.61328 v -21.875 h 3.61328 v 3.39844 q 1.23047,-2.01172 2.94922,-2.96875 1.71875,-0.95703 4.08203,-0.95703 2.38281,0 4.04297,1.21094 1.67969,1.21093 2.48047,3.51562 z"
         style=""
         id="path2670" />
      <path
         d="m 304.14844,265.56445 q 0,-3.96484 -1.64063,-6.21093 -1.62109,-2.26563 -4.47265,-2.26563 -2.85157,0 -4.49219,2.26563 -1.6211,2.24609 -1.6211,6.21093 0,3.96485 1.6211,6.23047 1.64062,2.2461 4.49219,2.2461 2.85156,0 4.47265,-2.2461 1.64063,-2.26562 1.64063,-6.23047 z m -12.22657,-7.63672 q 1.13282,-1.95312 2.85157,-2.89062 1.73828,-0.95703 4.14062,-0.95703 3.98438,0 6.46485,3.16406 2.5,3.16406 2.5,8.32031 0,5.15625 -2.5,8.32032 -2.48047,3.16406 -6.46485,3.16406 -2.40234,0 -4.14062,-0.9375 -1.71875,-0.95703 -2.85157,-2.91016 v 3.28125 h -3.61328 V 246.0918 h 3.61328 z"
         style=""
         id="path2672" />
      <path
         d="m 332.54687,264.64648 v 1.75782 h -16.52343 q 0.23437,3.71093 2.22656,5.66406 2.01172,1.93359 5.58594,1.93359 2.07031,0 4.0039,-0.50781 1.95313,-0.50781 3.86719,-1.52344 v 3.39844 q -1.93359,0.82031 -3.96484,1.25 -2.03125,0.42969 -4.1211,0.42969 -5.23437,0 -8.30078,-3.04688 -3.04687,-3.04687 -3.04687,-8.24218 0,-5.3711 2.89062,-8.51563 2.91016,-3.16406 7.83203,-3.16406 4.41407,0 6.97266,2.85156 2.57812,2.83203 2.57812,7.71484 z m -3.59375,-1.05468 q -0.0391,-2.94922 -1.66015,-4.70703 -1.60156,-1.75782 -4.25781,-1.75782 -3.00782,0 -4.82422,1.69922 -1.79688,1.69922 -2.07032,4.78516 z"
         style=""
         id="path2674" />
      <path
         d="m 351.12109,257.9668 q -0.60547,-0.35157 -1.32812,-0.50782 -0.70313,-0.17578 -1.5625,-0.17578 -3.04688,0 -4.6875,1.99219 -1.6211,1.97266 -1.6211,5.68359 v 11.52344 h -3.61328 v -21.875 h 3.61328 v 3.39844 q 1.13282,-1.99219 2.94922,-2.94922 1.81641,-0.97656 4.41407,-0.97656 0.37109,0 0.82031,0.0586 0.44922,0.0391 0.99609,0.13672 z"
         style=""
         id="path2676" />
      <path
         d="m 354.36328,246.13086 h 3.125 q 2.92969,4.60937 4.375,9.02344 1.46484,4.41406 1.46484,8.76953 0,4.375 -1.46484,8.80859 -1.44531,4.4336 -4.375,9.02344 h -3.125 q 2.59766,-4.47266 3.86719,-8.88672 1.28906,-4.43359 1.28906,-8.94531 0,-4.51172 -1.28906,-8.90625 -1.26953,-4.39453 -3.86719,-8.88672 z"
         style="fill:#008800;fill-opacity:1"
         id="path2678" />
    </g>
    <text
       xml:space="preserve"
       style="font-style:normal;font-weight:normal;font-size:10.58333302px;line-height:1.25;font-family:sans-serif;letter-spacing:0px;word-spacing:0px;fill:#000000;fill-opacity:1;stroke:none;stroke-width:0.26458332"
       x="21.389484"
       y="75.966522"
       id="text841"><tspan
         sodipodi:role="line"
         id="tspan839"
         x="21.389484"
         y="75.966522"
         style="font-size:8.46666622px;stroke-width:0.26458332">variable name</tspan></text>
    <path
       style="opacity:1;vector-effect:none;fill:none;fill-opacity:1;stroke:#b3b3b3;stroke-width:0.52899998;stroke-linecap:round;stroke-linejoin:round;stroke-miterlimit:4;stroke-dasharray:none"
       d="m 32.699854,90.518596 v -5.027077 h 42.862499 v 5.059177"
       id="path845"
       inkscape:connector-curvature="0"
       sodipodi:nodetypes="cccc" />
    <path
       style="opacity:1;vector-effect:none;fill:#ffffff;fill-opacity:1;stroke:#b3b3b3;stroke-width:0.52899998;stroke-linecap:round;stroke-linejoin:round;stroke-miterlimit:4;stroke-dasharray:none"
       d="M 54.379728,85.059659 V 78.885732"
       id="path847"
       inkscape:connector-curvature="0" />
    <text
       xml:space="preserve"
       style="font-style:normal;font-weight:normal;font-size:10.58333302px;line-height:1.25;font-family:sans-serif;letter-spacing:0px;word-spacing:0px;fill:#000000;fill-opacity:1;stroke:none;stroke-width:0.26458332"
       x="-25.868845"
       y="119.2476"
       id="text841-3"><tspan
         sodipodi:role="line"
         id="tspan839-6"
         x="-25.868845"
         y="119.2476"
         style="font-size:8.46666622px;stroke-width:0.26458332">body</tspan></text>
    <path
       style="opacity:1;vector-effect:none;fill:none;fill-opacity:1;stroke:#b3b3b3;stroke-width:0.52899998;stroke-linecap:round;stroke-linejoin:round;stroke-miterlimit:4;stroke-dasharray:none"
       d="m 8.5913739,122.85856 h -5.027016 v -12.17087 h 5.059116"
       id="path845-7"
       inkscape:connector-curvature="0"
       sodipodi:nodetypes="cccc" />
    <path
       style="opacity:1;vector-effect:none;fill:#ffffff;fill-opacity:1;stroke:#b3b3b3;stroke-width:0.52899998;stroke-linecap:round;stroke-linejoin:round;stroke-miterlimit:4;stroke-dasharray:none"
       d="M 3.1325079,117.0535 H -3.0413563"
       id="path847-5"
       inkscape:connector-curvature="0" />
    <text
       xml:space="preserve"
       style="font-style:normal;font-weight:normal;font-size:10.58333302px;line-height:1.25;font-family:sans-serif;letter-spacing:0px;word-spacing:0px;fill:#000000;fill-opacity:1;stroke:none;stroke-width:0.26458332"
       x="102.35201"
       y="75.966522"
       id="text841-35"><tspan
         sodipodi:role="line"
         id="tspan839-62"
         x="102.35201"
         y="75.966522"
         style="font-size:8.46666622px;stroke-width:0.26458332">collection</tspan></text>
    <path
       style="opacity:1;vector-effect:none;fill:none;fill-opacity:1;stroke:#b3b3b3;stroke-width:0.52899998;stroke-linecap:round;stroke-linejoin:round;stroke-miterlimit:4;stroke-dasharray:none"
       d="M 91.437358,90.518597 V 85.49152 h 58.737522 v 5.059177"
       id="path845-9"
       inkscape:connector-curvature="0"
       sodipodi:nodetypes="cccc" />
    <path
       style="opacity:1;vector-effect:none;fill:#ffffff;fill-opacity:1;stroke:#b3b3b3;stroke-width:0.52899998;stroke-linecap:round;stroke-linejoin:round;stroke-miterlimit:4;stroke-dasharray:none"
       d="M 122.6423,85.05966 V 78.885732"
       id="path847-1"
       inkscape:connector-curvature="0" />
  </g>
</svg>
