<?xml version="1.0" encoding="UTF-8" standalone="no"?>
<!-- Created with Inkscape (http://www.inkscape.org/) -->

<svg
   xmlns:dc="http://purl.org/dc/elements/1.1/"
   xmlns:cc="http://creativecommons.org/ns#"
   xmlns:rdf="http://www.w3.org/1999/02/22-rdf-syntax-ns#"
   xmlns:svg="http://www.w3.org/2000/svg"
   xmlns="http://www.w3.org/2000/svg"
   xmlns:sodipodi="http://sodipodi.sourceforge.net/DTD/sodipodi-0.dtd"
   xmlns:inkscape="http://www.inkscape.org/namespaces/inkscape"
   width="206.40999mm"
   height="75.187317mm"
   viewBox="0 0 206.40999 75.187317"
   version="1.1"
   id="svg921"
   sodipodi:docname="if_statement.svg"
   inkscape:version="0.92.3 (2405546, 2018-03-11)">
  <defs
     id="defs915" />
  <sodipodi:namedview
     id="base"
     pagecolor="#ffffff"
     bordercolor="#666666"
     borderopacity="1.0"
     inkscape:pageopacity="0.0"
     inkscape:pageshadow="2"
     inkscape:zoom="0.7"
     inkscape:cx="91.232466"
     inkscape:cy="165.23409"
     inkscape:document-units="mm"
     inkscape:current-layer="layer1"
     showgrid="false"
     fit-margin-top="10"
     fit-margin-left="10"
     fit-margin-right="10"
     fit-margin-bottom="10"
     inkscape:window-width="1853"
     inkscape:window-height="1029"
     inkscape:window-x="67"
     inkscape:window-y="27"
     inkscape:window-maximized="1" />
  <metadata
     id="metadata918">
    <rdf:RDF>
      <cc:Work
         rdf:about="">
        <dc:format>image/svg+xml</dc:format>
        <dc:type
           rdf:resource="http://purl.org/dc/dcmitype/StillImage" />
        <dc:title />
      </cc:Work>
    </rdf:RDF>
  </metadata>
  <g
     inkscape:label="Layer 1"
     inkscape:groupmode="layer"
     id="layer1"
     transform="translate(35.0999,-59.53384)">
    <path
       style="opacity:1;vector-effect:none;fill:#ffffff;fill-opacity:1;stroke:#b3b3b3;stroke-width:0.65687317;stroke-linecap:round;stroke-linejoin:round;stroke-miterlimit:4;stroke-dasharray:none"
       d="M 10.637197,93.035179 H 160.98165 V 124.39272 H 10.637197 Z"
       id="rect843" />
    <g
       aria-label="if house_number = 12:
    print('this is the house')"
       transform="matrix(0.26458333,0,0,0.26458333,6.6194966,44.948383)"
       style="font-style:normal;font-weight:normal;font-size:40px;line-height:1.25;font-family:sans-serif;letter-spacing:0px;word-spacing:0px;fill:#000000;fill-opacity:1;stroke:none"
       id="flowRoot815">
      <path
         d="m 38.054687,204.60742 h 3.59375 v 21.875 h -3.59375 z m 0,-8.51562 h 3.59375 v 4.55078 h -3.59375 z"
         style="fill:#008000;fill-opacity:1"
         id="path834" />
      <path
         d="m 60.222656,196.0918 v 2.98828 h -3.4375 q -1.933594,0 -2.695312,0.78125 -0.742188,0.78125 -0.742188,2.8125 v 1.93359 h 5.917969 v 2.79297 h -5.917969 v 19.08203 h -3.613281 v -19.08203 h -3.4375 v -2.79297 h 3.4375 v -1.52344 q 0,-3.65234 1.699219,-5.3125 1.699218,-1.67968 5.390625,-1.67968 z"
         style="fill:#008000;fill-opacity:1"
         id="path836" />
      <path
         d="m 94.128906,213.2793 v 13.20312 h -3.59375 v -13.08594 q 0,-3.10546 -1.210937,-4.64843 -1.210938,-1.54297 -3.632813,-1.54297 -2.910156,0 -4.589844,1.85547 -1.679687,1.85547 -1.679687,5.05859 v 12.36328 H 75.808594 V 196.0918 h 3.613281 v 11.91406 q 1.289062,-1.97266 3.027344,-2.94922 1.757812,-0.97656 4.042968,-0.97656 3.769532,0 5.703125,2.34375 1.933594,2.32422 1.933594,6.85547 z"
         style=""
         id="path838" />
      <path
         d="m 109.8125,207.12695 q -2.89062,0 -4.57031,2.26563 -1.67969,2.24609 -1.67969,6.17187 0,3.92578 1.66016,6.19141 1.67968,2.24609 4.58984,2.24609 2.87109,0 4.55078,-2.26562 1.67969,-2.26563 1.67969,-6.17188 0,-3.88672 -1.67969,-6.15234 -1.67969,-2.28516 -4.55078,-2.28516 z m 0,-3.04687 q 4.6875,0 7.36328,3.04687 2.67578,3.04688 2.67578,8.4375 0,5.3711 -2.67578,8.4375 -2.67578,3.04688 -7.36328,3.04688 -4.70703,0 -7.38281,-3.04688 -2.656253,-3.0664 -2.656253,-8.4375 0,-5.39062 2.656253,-8.4375 2.67578,-3.04687 7.38281,-3.04687 z"
         style=""
         id="path840" />
      <path
         d="m 125.41797,217.84961 v -13.24219 h 3.59375 v 13.10547 q 0,3.10547 1.21094,4.66797 1.21093,1.54297 3.63281,1.54297 2.91015,0 4.58984,-1.85547 1.69922,-1.85547 1.69922,-5.05859 v -12.40235 h 3.59375 v 21.875 h -3.59375 v -3.35937 q -1.30859,1.99218 -3.04687,2.96875 -1.71875,0.95703 -4.00391,0.95703 -3.76953,0 -5.72266,-2.34375 -1.95312,-2.34375 -1.95312,-6.85547 z m 9.04297,-13.76953 z"
         style=""
         id="path842" />
      <path
         d="m 165.125,205.25195 v 3.39844 q -1.52344,-0.78125 -3.16406,-1.17187 -1.64063,-0.39063 -3.39844,-0.39063 -2.67578,0 -4.02344,0.82031 -1.32812,0.82032 -1.32812,2.46094 0,1.25 0.95703,1.97266 0.95703,0.70312 3.84765,1.34765 l 1.23047,0.27344 q 3.82813,0.82031 5.42969,2.32422 1.62109,1.48437 1.62109,4.16016 0,3.04687 -2.42187,4.82421 -2.40234,1.77735 -6.62109,1.77735 -1.75782,0 -3.67188,-0.35156 -1.89453,-0.33204 -4.00391,-1.01563 v -3.71094 q 1.99219,1.03516 3.92579,1.5625 1.93359,0.50782 3.82812,0.50782 2.53906,0 3.90625,-0.85938 1.36719,-0.87891 1.36719,-2.46094 0,-1.46484 -0.9961,-2.24609 -0.97656,-0.78125 -4.3164,-1.50391 l -1.25,-0.29297 q -3.33985,-0.70312 -4.82422,-2.14843 -1.48438,-1.46485 -1.48438,-4.00391 0,-3.08594 2.1875,-4.76562 2.1875,-1.67969 6.21094,-1.67969 1.99219,0 3.75,0.29297 1.75781,0.29297 3.24219,0.8789 z"
         style=""
         id="path844" />
      <path
         d="m 190.75,214.64648 v 1.75782 h -16.52344 q 0.23438,3.71093 2.22656,5.66406 2.01172,1.93359 5.58594,1.93359 2.07031,0 4.00391,-0.50781 1.95312,-0.50781 3.86719,-1.52344 v 3.39844 q -1.9336,0.82031 -3.96485,1.25 -2.03125,0.42969 -4.12109,0.42969 -5.23438,0 -8.30078,-3.04688 -3.04688,-3.04687 -3.04688,-8.24218 0,-5.3711 2.89063,-8.51563 2.91015,-3.16406 7.83203,-3.16406 4.41406,0 6.97265,2.85156 2.57813,2.83203 2.57813,7.71484 z m -3.59375,-1.05468 q -0.0391,-2.94922 -1.66016,-4.70703 -1.60156,-1.75782 -4.25781,-1.75782 -3.00781,0 -4.82422,1.69922 -1.79687,1.69922 -2.07031,4.78516 z"
         style=""
         id="path846" />
      <path
         d="m 213.26953,233.12305 v 2.79297 h -20.78125 v -2.79297 z"
         style=""
         id="path848" />
      <path
         d="m 234.83203,213.2793 v 13.20312 h -3.59375 v -13.08594 q 0,-3.10546 -1.21094,-4.64843 -1.21093,-1.54297 -3.63281,-1.54297 -2.91016,0 -4.58984,1.85547 -1.67969,1.85547 -1.67969,5.05859 v 12.36328 h -3.61328 v -21.875 h 3.61328 v 3.39844 q 1.28906,-1.97266 3.02734,-2.94922 1.75782,-0.97656 4.04297,-0.97656 3.76953,0 5.70313,2.34375 1.93359,2.32422 1.93359,6.85547 z"
         style=""
         id="path850" />
      <path
         d="m 241.66797,217.84961 v -13.24219 h 3.59375 v 13.10547 q 0,3.10547 1.21094,4.66797 1.21093,1.54297 3.63281,1.54297 2.91015,0 4.58984,-1.85547 1.69922,-1.85547 1.69922,-5.05859 v -12.40235 h 3.59375 v 21.875 h -3.59375 v -3.35937 q -1.30859,1.99218 -3.04687,2.96875 -1.71875,0.95703 -4.00391,0.95703 -3.76953,0 -5.72266,-2.34375 -1.95312,-2.34375 -1.95312,-6.85547 z m 9.04297,-13.76953 z"
         style=""
         id="path852" />
      <path
         d="m 284.46094,208.80664 q 1.34765,-2.42187 3.22265,-3.57422 1.875,-1.15234 4.41407,-1.15234 3.41796,0 5.27343,2.40234 1.85547,2.38281 1.85547,6.79688 v 13.20312 h -3.61328 v -13.08594 q 0,-3.14453 -1.11328,-4.66796 -1.11328,-1.52344 -3.39844,-1.52344 -2.79297,0 -4.41406,1.85547 -1.62109,1.85547 -1.62109,5.05859 v 12.36328 h -3.61329 v -13.08594 q 0,-3.16406 -1.11328,-4.66796 -1.11328,-1.52344 -3.4375,-1.52344 -2.7539,0 -4.375,1.875 -1.62109,1.85547 -1.62109,5.03906 v 12.36328 h -3.61328 v -21.875 h 3.61328 v 3.39844 q 1.23047,-2.01172 2.94922,-2.96875 1.71875,-0.95703 4.08203,-0.95703 2.38281,0 4.04297,1.21094 1.67969,1.21093 2.48047,3.51562 z"
         style=""
         id="path854" />
      <path
         d="m 322.11719,215.56445 q 0,-3.96484 -1.64063,-6.21093 -1.62109,-2.26563 -4.47265,-2.26563 -2.85157,0 -4.49219,2.26563 -1.6211,2.24609 -1.6211,6.21093 0,3.96485 1.6211,6.23047 1.64062,2.2461 4.49219,2.2461 2.85156,0 4.47265,-2.2461 1.64063,-2.26562 1.64063,-6.23047 z m -12.22657,-7.63672 q 1.13282,-1.95312 2.85157,-2.89062 1.73828,-0.95703 4.14062,-0.95703 3.98438,0 6.46485,3.16406 2.5,3.16406 2.5,8.32031 0,5.15625 -2.5,8.32032 -2.48047,3.16406 -6.46485,3.16406 -2.40234,0 -4.14062,-0.9375 -1.71875,-0.95703 -2.85157,-2.91016 v 3.28125 h -3.61328 V 196.0918 h 3.61328 z"
         style=""
         id="path856" />
      <path
         d="m 350.51562,214.64648 v 1.75782 h -16.52343 q 0.23437,3.71093 2.22656,5.66406 2.01172,1.93359 5.58594,1.93359 2.07031,0 4.0039,-0.50781 1.95313,-0.50781 3.86719,-1.52344 v 3.39844 q -1.93359,0.82031 -3.96484,1.25 -2.03125,0.42969 -4.1211,0.42969 -5.23437,0 -8.30078,-3.04688 -3.04687,-3.04687 -3.04687,-8.24218 0,-5.3711 2.89062,-8.51563 2.91016,-3.16406 7.83203,-3.16406 4.41407,0 6.97266,2.85156 2.57812,2.83203 2.57812,7.71484 z m -3.59375,-1.05468 q -0.0391,-2.94922 -1.66015,-4.70703 -1.60156,-1.75782 -4.25781,-1.75782 -3.00782,0 -4.82422,1.69922 -1.79688,1.69922 -2.07032,4.78516 z"
         style=""
         id="path858" />
      <path
         d="m 369.08984,207.9668 q -0.60547,-0.35157 -1.32812,-0.50782 -0.70313,-0.17578 -1.5625,-0.17578 -3.04688,0 -4.6875,1.99219 -1.6211,1.97266 -1.6211,5.68359 v 11.52344 h -3.61328 v -21.875 h 3.61328 v 3.39844 q 1.13282,-1.99219 2.94922,-2.94922 1.81641,-0.97656 4.41407,-0.97656 0.37109,0 0.82031,0.0586 0.44922,0.0391 0.99609,0.13672 z"
         style=""
         id="path860" />
      <path
         d="m 386.10156,208.31836 h 25.03906 v 3.28125 h -25.03906 z m 0,7.96875 h 25.03906 v 3.32031 h -25.03906 z"
         style="fill:#aa22ff;fill-opacity:1"
         id="path862" />
      <path
         d="m 433.07422,223.16211 h 6.44531 v -22.24609 l -7.01172,1.40625 v -3.59375 l 6.97266,-1.40625 h 3.94531 v 25.83984 h 6.44531 v 3.32031 h -16.79687 z"
         style="fill:#008800;fill-opacity:1"
         id="path864" />
      <path
         d="m 461.25781,223.16211 h 13.76953 v 3.32031 h -18.51562 v -3.32031 q 2.24609,-2.32422 6.11328,-6.23047 3.88672,-3.92578 4.88281,-5.05859 1.89453,-2.12891 2.63672,-3.59375 0.76172,-1.48438 0.76172,-2.91016 0,-2.32422 -1.64063,-3.78906 -1.62109,-1.46485 -4.23828,-1.46485 -1.85547,0 -3.92578,0.64454 -2.05078,0.64453 -4.39453,1.95312 v -3.98437 q 2.38281,-0.95704 4.45313,-1.44532 2.07031,-0.48828 3.78906,-0.48828 4.53125,0 7.22656,2.26563 2.69531,2.26562 2.69531,6.05468 0,1.79688 -0.68359,3.41797 -0.66406,1.60157 -2.44141,3.78907 -0.48828,0.5664 -3.10547,3.28125 -2.61718,2.69531 -7.38281,7.55859 z"
         style="fill:#008800;fill-opacity:1"
         id="path866" />
      <path
         d="m 483.73828,221.52148 h 4.12109 v 4.96094 h -4.12109 z m 0,-15.72265 h 4.12109 v 4.96094 h -4.12109 z"
         style=""
         id="path868" />
      <path
         d="m 92.46875,273.20117 v 11.60156 h -3.613281 v -30.19531 h 3.613281 v 3.32031 q 1.132812,-1.95312 2.851562,-2.89062 1.738282,-0.95703 4.140625,-0.95703 3.984373,0 6.464843,3.16406 2.5,3.16406 2.5,8.32031 0,5.15625 -2.5,8.32032 -2.48047,3.16406 -6.464843,3.16406 -2.402343,0 -4.140625,-0.9375 -1.71875,-0.95703 -2.851562,-2.91016 z m 12.22656,-7.63672 q 0,-3.96484 -1.64062,-6.21093 -1.6211,-2.26563 -4.472659,-2.26563 -2.851562,0 -4.492187,2.26563 -1.621094,2.24609 -1.621094,6.21093 0,3.96485 1.621094,6.23047 1.640625,2.2461 4.492187,2.2461 2.851559,0 4.472659,-2.2461 1.64062,-2.26562 1.64062,-6.23047 z"
         style="fill:#008000;fill-opacity:1"
         id="path870" />
      <path
         d="m 127.05859,257.9668 q -0.60546,-0.35157 -1.32812,-0.50782 -0.70313,-0.17578 -1.5625,-0.17578 -3.04688,0 -4.6875,1.99219 -1.62109,1.97266 -1.62109,5.68359 v 11.52344 h -3.61329 v -21.875 h 3.61329 v 3.39844 q 1.13281,-1.99219 2.94921,-2.94922 1.81641,-0.97656 4.41407,-0.97656 0.37109,0 0.82031,0.0586 0.44922,0.0391 0.99609,0.13672 z"
         style="fill:#008000;fill-opacity:1"
         id="path872" />
      <path
         d="m 130.86719,254.60742 h 3.59375 v 21.875 h -3.59375 z m 0,-8.51562 h 3.59375 v 4.55078 h -3.59375 z"
         style="fill:#008000;fill-opacity:1"
         id="path874" />
      <path
         d="m 160.14453,263.2793 v 13.20312 h -3.59375 v -13.08594 q 0,-3.10546 -1.21094,-4.64843 -1.21093,-1.54297 -3.63281,-1.54297 -2.91016,0 -4.58984,1.85547 -1.67969,1.85547 -1.67969,5.05859 v 12.36328 h -3.61328 v -21.875 h 3.61328 v 3.39844 q 1.28906,-1.97266 3.02734,-2.94922 1.75782,-0.97656 4.04297,-0.97656 3.76953,0 5.70313,2.34375 1.93359,2.32422 1.93359,6.85547 z"
         style="fill:#008000;fill-opacity:1"
         id="path876" />
      <path
         d="m 170.90625,248.39648 v 6.21094 h 7.40234 v 2.79297 h -7.40234 v 11.875 q 0,2.67578 0.72266,3.4375 0.74218,0.76172 2.98828,0.76172 h 3.6914 v 3.00781 h -3.6914 q -4.16016,0 -5.74219,-1.54297 -1.58203,-1.5625 -1.58203,-5.66406 v -11.875 h -2.63672 v -2.79297 h 2.63672 v -6.21094 z"
         style="fill:#008000;fill-opacity:1"
         id="path878" />
      <path
         d="m 191.6875,246.13086 q -2.61719,4.49219 -3.88672,8.88672 -1.26953,4.39453 -1.26953,8.90625 0,4.51172 1.26953,8.94531 1.28906,4.41406 3.88672,8.88672 h -3.125 q -2.92969,-4.58984 -4.39453,-9.02344 -1.44531,-4.43359 -1.44531,-8.80859 0,-4.35547 1.44531,-8.76953 1.44531,-4.41407 4.39453,-9.02344 z"
         style=""
         id="path880" />
      <path
         d="m 202.07812,247.32227 v 10.83984 h -3.32031 v -10.83984 z"
         style="fill:#ba2121;fill-opacity:1"
         id="path882" />
      <path
         d="m 213.25,248.39648 v 6.21094 h 7.40234 v 2.79297 H 213.25 v 11.875 q 0,2.67578 0.72266,3.4375 0.74218,0.76172 2.98828,0.76172 h 3.6914 v 3.00781 h -3.6914 q -4.16016,0 -5.74219,-1.54297 -1.58203,-1.5625 -1.58203,-5.66406 v -11.875 H 207 v -2.79297 h 2.63672 v -6.21094 z"
         style="fill:#ba2121;fill-opacity:1"
         id="path884" />
      <path
         d="m 243.58203,263.2793 v 13.20312 h -3.59375 v -13.08594 q 0,-3.10546 -1.21094,-4.64843 -1.21093,-1.54297 -3.63281,-1.54297 -2.91016,0 -4.58984,1.85547 -1.67969,1.85547 -1.67969,5.05859 v 12.36328 h -3.61328 V 246.0918 h 3.61328 v 11.91406 q 1.28906,-1.97266 3.02734,-2.94922 1.75782,-0.97656 4.04297,-0.97656 3.76953,0 5.70313,2.34375 1.93359,2.32422 1.93359,6.85547 z"
         style="fill:#ba2121;fill-opacity:1"
         id="path886" />
      <path
         d="m 250.78906,254.60742 h 3.59375 v 21.875 h -3.59375 z m 0,-8.51562 h 3.59375 v 4.55078 h -3.59375 z"
         style="fill:#ba2121;fill-opacity:1"
         id="path888" />
      <path
         d="m 275.82812,255.25195 v 3.39844 q -1.52343,-0.78125 -3.16406,-1.17187 -1.64062,-0.39063 -3.39844,-0.39063 -2.67578,0 -4.02343,0.82031 -1.32813,0.82032 -1.32813,2.46094 0,1.25 0.95703,1.97266 0.95703,0.70312 3.84766,1.34765 l 1.23047,0.27344 q 3.82812,0.82031 5.42969,2.32422 1.62109,1.48437 1.62109,4.16016 0,3.04687 -2.42188,4.82421 -2.40234,1.77735 -6.62109,1.77735 -1.75781,0 -3.67187,-0.35156 -1.89454,-0.33204 -4.00391,-1.01563 v -3.71094 q 1.99219,1.03516 3.92578,1.5625 1.93359,0.50782 3.82813,0.50782 2.53906,0 3.90625,-0.85938 1.36718,-0.87891 1.36718,-2.46094 0,-1.46484 -0.99609,-2.24609 -0.97656,-0.78125 -4.31641,-1.50391 l -1.25,-0.29297 q -3.33984,-0.70312 -4.82422,-2.14843 -1.48437,-1.46485 -1.48437,-4.00391 0,-3.08594 2.1875,-4.76562 2.1875,-1.67969 6.21094,-1.67969 1.99218,0 3.75,0.29297 1.75781,0.29297 3.24218,0.8789 z"
         style="fill:#ba2121;fill-opacity:1"
         id="path890" />
      <path
         d="m 295.47656,254.60742 h 3.59375 v 21.875 h -3.59375 z m 0,-8.51562 h 3.59375 v 4.55078 h -3.59375 z"
         style="fill:#ba2121;fill-opacity:1"
         id="path892" />
      <path
         d="m 320.51562,255.25195 v 3.39844 q -1.52343,-0.78125 -3.16406,-1.17187 -1.64062,-0.39063 -3.39844,-0.39063 -2.67578,0 -4.02343,0.82031 -1.32813,0.82032 -1.32813,2.46094 0,1.25 0.95703,1.97266 0.95703,0.70312 3.84766,1.34765 l 1.23047,0.27344 q 3.82812,0.82031 5.42969,2.32422 1.62109,1.48437 1.62109,4.16016 0,3.04687 -2.42188,4.82421 -2.40234,1.77735 -6.62109,1.77735 -1.75781,0 -3.67187,-0.35156 -1.89454,-0.33204 -4.00391,-1.01563 v -3.71094 q 1.99219,1.03516 3.92578,1.5625 1.93359,0.50782 3.82813,0.50782 2.53906,0 3.90625,-0.85938 1.36718,-0.87891 1.36718,-2.46094 0,-1.46484 -0.99609,-2.24609 -0.97656,-0.78125 -4.31641,-1.50391 l -1.25,-0.29297 q -3.33984,-0.70312 -4.82422,-2.14843 -1.48437,-1.46485 -1.48437,-4.00391 0,-3.08594 2.1875,-4.76562 2.1875,-1.67969 6.21094,-1.67969 1.99218,0 3.75,0.29297 1.75781,0.29297 3.24218,0.8789 z"
         style="fill:#ba2121;fill-opacity:1"
         id="path894" />
      <path
         d="m 343.71875,248.39648 v 6.21094 h 7.40234 v 2.79297 h -7.40234 v 11.875 q 0,2.67578 0.72266,3.4375 0.74218,0.76172 2.98828,0.76172 h 3.6914 v 3.00781 h -3.6914 q -4.16016,0 -5.74219,-1.54297 -1.58203,-1.5625 -1.58203,-5.66406 v -11.875 h -2.63672 v -2.79297 h 2.63672 v -6.21094 z"
         style="fill:#ba2121;fill-opacity:1"
         id="path896" />
      <path
         d="m 374.05078,263.2793 v 13.20312 h -3.59375 v -13.08594 q 0,-3.10546 -1.21094,-4.64843 -1.21093,-1.54297 -3.63281,-1.54297 -2.91016,0 -4.58984,1.85547 -1.67969,1.85547 -1.67969,5.05859 v 12.36328 h -3.61328 V 246.0918 h 3.61328 v 11.91406 q 1.28906,-1.97266 3.02734,-2.94922 1.75782,-0.97656 4.04297,-0.97656 3.76953,0 5.70313,2.34375 1.93359,2.32422 1.93359,6.85547 z"
         style="fill:#ba2121;fill-opacity:1"
         id="path898" />
      <path
         d="m 399.96875,264.64648 v 1.75782 h -16.52344 q 0.23438,3.71093 2.22656,5.66406 2.01172,1.93359 5.58594,1.93359 2.07031,0 4.00391,-0.50781 1.95312,-0.50781 3.86719,-1.52344 v 3.39844 q -1.9336,0.82031 -3.96485,1.25 -2.03125,0.42969 -4.12109,0.42969 -5.23438,0 -8.30078,-3.04688 -3.04688,-3.04687 -3.04688,-8.24218 0,-5.3711 2.89063,-8.51563 2.91015,-3.16406 7.83203,-3.16406 4.41406,0 6.97265,2.85156 2.57813,2.83203 2.57813,7.71484 z M 396.375,263.5918 q -0.0391,-2.94922 -1.66016,-4.70703 -1.60156,-1.75782 -4.25781,-1.75782 -3.00781,0 -4.82422,1.69922 -1.79687,1.69922 -2.07031,4.78516 z"
         style="fill:#ba2121;fill-opacity:1"
         id="path900" />
      <path
         d="m 436.78516,263.2793 v 13.20312 h -3.59375 v -13.08594 q 0,-3.10546 -1.21094,-4.64843 -1.21094,-1.54297 -3.63281,-1.54297 -2.91016,0 -4.58985,1.85547 -1.67969,1.85547 -1.67969,5.05859 v 12.36328 h -3.61328 V 246.0918 h 3.61328 v 11.91406 q 1.28907,-1.97266 3.02735,-2.94922 1.75781,-0.97656 4.04297,-0.97656 3.76953,0 5.70312,2.34375 1.9336,2.32422 1.9336,6.85547 z"
         style="fill:#ba2121;fill-opacity:1"
         id="path902" />
      <path
         d="m 452.46875,257.12695 q -2.89063,0 -4.57031,2.26563 -1.67969,2.24609 -1.67969,6.17187 0,3.92578 1.66016,6.19141 1.67968,2.24609 4.58984,2.24609 2.87109,0 4.55078,-2.26562 1.67969,-2.26563 1.67969,-6.17188 0,-3.88672 -1.67969,-6.15234 -1.67969,-2.28516 -4.55078,-2.28516 z m 0,-3.04687 q 4.6875,0 7.36328,3.04687 2.67578,3.04688 2.67578,8.4375 0,5.3711 -2.67578,8.4375 -2.67578,3.04688 -7.36328,3.04688 -4.70703,0 -7.38281,-3.04688 -2.65625,-3.0664 -2.65625,-8.4375 0,-5.39062 2.65625,-8.4375 2.67578,-3.04687 7.38281,-3.04687 z"
         style="fill:#ba2121;fill-opacity:1"
         id="path904" />
      <path
         d="m 468.07422,267.84961 v -13.24219 h 3.59375 v 13.10547 q 0,3.10547 1.21094,4.66797 1.21093,1.54297 3.63281,1.54297 2.91015,0 4.58984,-1.85547 1.69922,-1.85547 1.69922,-5.05859 v -12.40235 h 3.59375 v 21.875 h -3.59375 v -3.35937 q -1.30859,1.99218 -3.04687,2.96875 -1.71875,0.95703 -4.00391,0.95703 -3.76953,0 -5.72266,-2.34375 -1.95312,-2.34375 -1.95312,-6.85547 z m 9.04297,-13.76953 z"
         style="fill:#ba2121;fill-opacity:1"
         id="path906" />
      <path
         d="m 507.78125,255.25195 v 3.39844 q -1.52344,-0.78125 -3.16406,-1.17187 -1.64063,-0.39063 -3.39844,-0.39063 -2.67578,0 -4.02344,0.82031 -1.32812,0.82032 -1.32812,2.46094 0,1.25 0.95703,1.97266 0.95703,0.70312 3.84765,1.34765 l 1.23047,0.27344 q 3.82813,0.82031 5.42969,2.32422 1.62109,1.48437 1.62109,4.16016 0,3.04687 -2.42187,4.82421 -2.40234,1.77735 -6.62109,1.77735 -1.75782,0 -3.67188,-0.35156 -1.89453,-0.33204 -4.00391,-1.01563 v -3.71094 q 1.99219,1.03516 3.92579,1.5625 1.93359,0.50782 3.82812,0.50782 2.53906,0 3.90625,-0.85938 1.36719,-0.87891 1.36719,-2.46094 0,-1.46484 -0.9961,-2.24609 -0.97656,-0.78125 -4.3164,-1.50391 l -1.25,-0.29297 q -3.33985,-0.70312 -4.82422,-2.14843 -1.48438,-1.46485 -1.48438,-4.00391 0,-3.08594 2.1875,-4.76562 2.1875,-1.67969 6.21094,-1.67969 1.99219,0 3.75,0.29297 1.75781,0.29297 3.24219,0.8789 z"
         style="fill:#ba2121;fill-opacity:1"
         id="path908" />
      <path
         d="m 533.40625,264.64648 v 1.75782 h -16.52344 q 0.23438,3.71093 2.22656,5.66406 2.01172,1.93359 5.58594,1.93359 2.07031,0 4.00391,-0.50781 1.95312,-0.50781 3.86719,-1.52344 v 3.39844 q -1.9336,0.82031 -3.96485,1.25 -2.03125,0.42969 -4.12109,0.42969 -5.23438,0 -8.30078,-3.04688 -3.04688,-3.04687 -3.04688,-8.24218 0,-5.3711 2.89063,-8.51563 2.91015,-3.16406 7.83203,-3.16406 4.41406,0 6.97265,2.85156 2.57813,2.83203 2.57813,7.71484 z m -3.59375,-1.05468 q -0.0391,-2.94922 -1.66016,-4.70703 -1.60156,-1.75782 -4.25781,-1.75782 -3.00781,0 -4.82422,1.69922 -1.79687,1.69922 -2.07031,4.78516 z"
         style="fill:#ba2121;fill-opacity:1"
         id="path910" />
      <path
         d="m 542.70312,247.32227 v 10.83984 h -3.32031 v -10.83984 z"
         style="fill:#ba2121;fill-opacity:1"
         id="path912" />
      <path
         d="m 549.75391,246.13086 h 3.125 q 2.92968,4.60937 4.375,9.02344 1.46484,4.41406 1.46484,8.76953 0,4.375 -1.46484,8.80859 -1.44532,4.4336 -4.375,9.02344 h -3.125 q 2.59765,-4.47266 3.86718,-8.88672 1.28907,-4.43359 1.28907,-8.94531 0,-4.51172 -1.28907,-8.90625 -1.26953,-4.39453 -3.86718,-8.88672 z"
         style=""
         id="path914" />
    </g>
    <text
       xml:space="preserve"
       style="font-style:normal;font-weight:normal;font-size:10.58333302px;line-height:1.25;font-family:sans-serif;letter-spacing:0px;word-spacing:0px;fill:#000000;fill-opacity:1;stroke:none;stroke-width:0.26458332"
       x="60.018688"
       y="75.966522"
       id="text841"><tspan
         sodipodi:role="line"
         id="tspan839"
         x="60.018688"
         y="75.966522"
         style="font-size:8.46666622px;stroke-width:0.26458332">condition</tspan></text>
    <path
       style="opacity:1;vector-effect:none;fill:none;fill-opacity:1;stroke:#b3b3b3;stroke-width:0.52899998;stroke-linecap:round;stroke-linejoin:round;stroke-miterlimit:4;stroke-dasharray:none"
       d="M 26.349854,90.518596 V 85.491519 H 133.24152 v 5.059177"
       id="path845"
       inkscape:connector-curvature="0"
       sodipodi:nodetypes="cccc" />
    <path
       style="opacity:1;vector-effect:none;fill:#ffffff;fill-opacity:1;stroke:#b3b3b3;stroke-width:0.52899998;stroke-linecap:round;stroke-linejoin:round;stroke-miterlimit:4;stroke-dasharray:none"
       d="M 79.250577,85.059659 V 78.885732"
       id="path847"
       inkscape:connector-curvature="0" />
    <text
       xml:space="preserve"
       style="font-style:normal;font-weight:normal;font-size:10.58333302px;line-height:1.25;font-family:sans-serif;letter-spacing:0px;word-spacing:0px;fill:#000000;fill-opacity:1;stroke:none;stroke-width:0.26458332"
       x="-25.868845"
       y="119.2476"
       id="text841-3"><tspan
         sodipodi:role="line"
         id="tspan839-6"
         x="-25.868845"
         y="119.2476"
         style="font-size:8.46666622px;stroke-width:0.26458332">body</tspan></text>
    <path
       style="opacity:1;vector-effect:none;fill:none;fill-opacity:1;stroke:#b3b3b3;stroke-width:0.52899998;stroke-linecap:round;stroke-linejoin:round;stroke-miterlimit:4;stroke-dasharray:none"
       d="m 8.5913739,122.85856 h -5.027016 v -12.17087 h 5.059116"
       id="path845-7"
       inkscape:connector-curvature="0"
       sodipodi:nodetypes="cccc" />
    <path
       style="opacity:1;vector-effect:none;fill:#ffffff;fill-opacity:1;stroke:#b3b3b3;stroke-width:0.52899998;stroke-linecap:round;stroke-linejoin:round;stroke-miterlimit:4;stroke-dasharray:none"
       d="M 3.1325079,117.0535 H -3.0413563"
       id="path847-5"
       inkscape:connector-curvature="0" />
  </g>
</svg>
