<?xml version="1.0" encoding="UTF-8" standalone="no"?>
<!-- Created with Inkscape (http://www.inkscape.org/) -->

<svg
   xmlns:dc="http://purl.org/dc/elements/1.1/"
   xmlns:cc="http://creativecommons.org/ns#"
   xmlns:rdf="http://www.w3.org/1999/02/22-rdf-syntax-ns#"
   xmlns:svg="http://www.w3.org/2000/svg"
   xmlns="http://www.w3.org/2000/svg"
   xmlns:sodipodi="http://sodipodi.sourceforge.net/DTD/sodipodi-0.dtd"
   xmlns:inkscape="http://www.inkscape.org/namespaces/inkscape"
   width="188.319mm"
   height="84.007751mm"
   viewBox="0 0 188.319 84.007751"
   version="1.1"
   id="svg8"
   inkscape:version="0.92.3 (2405546, 2018-03-11)"
   sodipodi:docname="variable.svg">
  <defs
     id="defs2" />
  <sodipodi:namedview
     id="base"
     pagecolor="#ffffff"
     bordercolor="#666666"
     borderopacity="1.0"
     inkscape:pageopacity="0.0"
     inkscape:pageshadow="2"
     inkscape:zoom="0.70710678"
     inkscape:cx="189.09974"
     inkscape:cy="72.4018"
     inkscape:document-units="mm"
     inkscape:current-layer="layer1"
     showgrid="false"
     fit-margin-top="10"
     fit-margin-left="10"
     fit-margin-right="10"
     fit-margin-bottom="10"
     inkscape:window-width="1853"
     inkscape:window-height="1029"
     inkscape:window-x="67"
     inkscape:window-y="27"
     inkscape:window-maximized="1" />
  <metadata
     id="metadata5">
    <rdf:RDF>
      <cc:Work
         rdf:about="">
        <dc:format>image/svg+xml</dc:format>
        <dc:type
           rdf:resource="http://purl.org/dc/dcmitype/StillImage" />
        <dc:title />
      </cc:Work>
    </rdf:RDF>
  </metadata>
  <g
     inkscape:label="Layer 1"
     inkscape:groupmode="layer"
     id="layer1"
     transform="translate(-13.602229,-31.065228)">
    <rect
       style="opacity:1;vector-effect:none;fill:#ffffff;fill-opacity:1;stroke:#b3b3b3;stroke-width:0.52899998;stroke-linecap:round;stroke-linejoin:round;stroke-miterlimit:4;stroke-dasharray:none"
       id="rect843"
       width="167.48125"
       height="18.25625"
       x="24.175489"
       y="64.50267" />
    <g
       aria-label="book_title = 'The Dark Forest'"
       transform="matrix(0.26458333,0,0,0.26458333,20.221726,16.479762)"
       style="font-style:normal;font-weight:normal;font-size:40px;line-height:1.25;font-family:sans-serif;letter-spacing:0px;word-spacing:0px;fill:#000000;fill-opacity:1;stroke:none"
       id="flowRoot815">
      <path
         d="m 53.757812,215.56445 q 0,-3.96484 -1.640625,-6.21093 -1.621093,-2.26563 -4.472656,-2.26563 -2.851562,0 -4.492187,2.26563 -1.621094,2.24609 -1.621094,6.21093 0,3.96485 1.621094,6.23047 1.640625,2.2461 4.492187,2.2461 2.851563,0 4.472656,-2.2461 1.640625,-2.26562 1.640625,-6.23047 z M 41.53125,207.92773 q 1.132812,-1.95312 2.851562,-2.89062 1.738282,-0.95703 4.140625,-0.95703 3.984375,0 6.464844,3.16406 2.5,3.16406 2.5,8.32031 0,5.15625 -2.5,8.32032 -2.480469,3.16406 -6.464844,3.16406 -2.402343,0 -4.140625,-0.9375 -1.71875,-0.95703 -2.851562,-2.91016 v 3.28125 H 37.917969 V 196.0918 h 3.613281 z"
         style=""
         id="path827" />
      <path
         d="m 71.921875,207.12695 q -2.890625,0 -4.570313,2.26563 -1.679687,2.24609 -1.679687,6.17187 0,3.92578 1.660156,6.19141 1.679688,2.24609 4.589844,2.24609 2.871094,0 4.550781,-2.26562 1.679688,-2.26563 1.679688,-6.17188 0,-3.88672 -1.679688,-6.15234 -1.679687,-2.28516 -4.550781,-2.28516 z m 0,-3.04687 q 4.6875,0 7.363281,3.04687 2.675781,3.04688 2.675781,8.4375 0,5.3711 -2.675781,8.4375 -2.675781,3.04688 -7.363281,3.04688 -4.707031,0 -7.382813,-3.04688 -2.65625,-3.0664 -2.65625,-8.4375 0,-5.39062 2.65625,-8.4375 2.675782,-3.04687 7.382813,-3.04687 z"
         style=""
         id="path829" />
      <path
         d="m 96.375,207.12695 q -2.890625,0 -4.570313,2.26563 -1.679687,2.24609 -1.679687,6.17187 0,3.92578 1.660156,6.19141 1.679688,2.24609 4.589844,2.24609 2.871094,0 4.55078,-2.26562 1.67969,-2.26563 1.67969,-6.17188 0,-3.88672 -1.67969,-6.15234 -1.679686,-2.28516 -4.55078,-2.28516 z m 0,-3.04687 q 4.6875,0 7.36328,3.04687 2.67578,3.04688 2.67578,8.4375 0,5.3711 -2.67578,8.4375 -2.67578,3.04688 -7.36328,3.04688 -4.707031,0 -7.382813,-3.04688 -2.65625,-3.0664 -2.65625,-8.4375 0,-5.39062 2.65625,-8.4375 2.675782,-3.04687 7.382813,-3.04687 z"
         style=""
         id="path831" />
      <path
         d="m 112.21484,196.0918 h 3.61329 v 17.94922 l 10.72265,-9.4336 h 4.58984 l -11.60156,10.23438 12.08985,11.64062 h -4.6875 l -11.11328,-10.68359 v 10.68359 h -3.61329 z"
         style=""
         id="path833" />
      <path
         d="m 152.17578,233.12305 v 2.79297 h -20.78125 v -2.79297 z"
         style=""
         id="path835" />
      <path
         d="m 159.10937,198.39648 v 6.21094 h 7.40235 v 2.79297 h -7.40235 v 11.875 q 0,2.67578 0.72266,3.4375 0.74219,0.76172 2.98828,0.76172 h 3.69141 v 3.00781 h -3.69141 q -4.16015,0 -5.74219,-1.54297 -1.58203,-1.5625 -1.58203,-5.66406 v -11.875 h -2.63672 v -2.79297 h 2.63672 v -6.21094 z"
         style=""
         id="path837" />
      <path
         d="m 171.25781,204.60742 h 3.59375 v 21.875 h -3.59375 z m 0,-8.51562 h 3.59375 v 4.55078 h -3.59375 z"
         style=""
         id="path839" />
      <path
         d="m 185.90625,198.39648 v 6.21094 h 7.40234 v 2.79297 h -7.40234 v 11.875 q 0,2.67578 0.72266,3.4375 0.74218,0.76172 2.98828,0.76172 h 3.6914 v 3.00781 h -3.6914 q -4.16016,0 -5.74219,-1.54297 -1.58203,-1.5625 -1.58203,-5.66406 v -11.875 h -2.63672 v -2.79297 h 2.63672 v -6.21094 z"
         style=""
         id="path841" />
      <path
         d="m 198.05469,196.0918 h 3.59375 v 30.39062 h -3.59375 z"
         style=""
         id="path843" />
      <path
         d="m 227.85937,214.64648 v 1.75782 h -16.52343 q 0.23437,3.71093 2.22656,5.66406 2.01172,1.93359 5.58594,1.93359 2.07031,0 4.0039,-0.50781 1.95313,-0.50781 3.86719,-1.52344 v 3.39844 q -1.93359,0.82031 -3.96484,1.25 -2.03125,0.42969 -4.1211,0.42969 -5.23437,0 -8.30078,-3.04688 -3.04687,-3.04687 -3.04687,-8.24218 0,-5.3711 2.89062,-8.51563 2.91016,-3.16406 7.83203,-3.16406 4.41407,0 6.97266,2.85156 2.57812,2.83203 2.57812,7.71484 z m -3.59375,-1.05468 q -0.0391,-2.94922 -1.66015,-4.70703 -1.60156,-1.75782 -4.25781,-1.75782 -3.00782,0 -4.82422,1.69922 -1.79688,1.69922 -2.07032,4.78516 z"
         style=""
         id="path846" />
      <path
         d="M 246.96094,208.31836 H 272 v 3.28125 h -25.03906 z m 0,7.96875 H 272 v 3.32031 h -25.03906 z"
         style="fill:#aa22ff;fill-opacity:1"
         id="path848" />
      <path
         d="m 296.14062,197.32227 v 10.83984 h -3.32031 v -10.83984 z"
         style="fill:#ba2121;fill-opacity:1"
         id="path850" />
      <path
         d="m 299.87109,197.32227 h 24.66797 v 3.32031 H 314.1875 v 25.83984 h -3.96484 v -25.83984 h -10.35157 z"
         style="fill:#ba2121;fill-opacity:1"
         id="path852" />
      <path
         d="m 346.39453,213.2793 v 13.20312 h -3.59375 v -13.08594 q 0,-3.10546 -1.21094,-4.64843 -1.21093,-1.54297 -3.63281,-1.54297 -2.91016,0 -4.58984,1.85547 -1.67969,1.85547 -1.67969,5.05859 v 12.36328 h -3.61328 V 196.0918 h 3.61328 v 11.91406 q 1.28906,-1.97266 3.02734,-2.94922 1.75782,-0.97656 4.04297,-0.97656 3.76953,0 5.70313,2.34375 1.93359,2.32422 1.93359,6.85547 z"
         style="fill:#ba2121;fill-opacity:1"
         id="path854" />
      <path
         d="m 372.3125,214.64648 v 1.75782 h -16.52344 q 0.23438,3.71093 2.22656,5.66406 2.01172,1.93359 5.58594,1.93359 2.07031,0 4.00391,-0.50781 1.95312,-0.50781 3.86719,-1.52344 v 3.39844 q -1.9336,0.82031 -3.96485,1.25 -2.03125,0.42969 -4.12109,0.42969 -5.23438,0 -8.30078,-3.04688 -3.04688,-3.04687 -3.04688,-8.24218 0,-5.3711 2.89063,-8.51563 2.91015,-3.16406 7.83203,-3.16406 4.41406,0 6.97265,2.85156 2.57813,2.83203 2.57813,7.71484 z m -3.59375,-1.05468 q -0.0391,-2.94922 -1.66016,-4.70703 -1.60156,-1.75782 -4.25781,-1.75782 -3.00781,0 -4.82422,1.69922 -1.79687,1.69922 -2.07031,4.78516 z"
         style="fill:#ba2121;fill-opacity:1"
         id="path856" />
      <path
         d="m 395.04687,200.56445 v 22.67578 h 4.76563 q 6.03516,0 8.82812,-2.73437 2.8125,-2.73438 2.8125,-8.63281 0,-5.85938 -2.8125,-8.57422 -2.79296,-2.73438 -8.82812,-2.73438 z m -3.94531,-3.24218 h 8.10547 q 8.47656,0 12.44141,3.53515 3.96484,3.51563 3.96484,11.01563 0,7.53906 -3.98437,11.07422 -3.98438,3.53515 -12.42188,3.53515 h -8.10547 z"
         style="fill:#ba2121;fill-opacity:1"
         id="path858" />
      <path
         d="m 431.66797,215.48633 q -4.35547,0 -6.03516,0.99609 -1.67969,0.9961 -1.67969,3.39844 0,1.91406 1.25,3.04687 1.26954,1.11329 3.4375,1.11329 2.98829,0 4.78516,-2.10938 1.81641,-2.12891 1.81641,-5.64453 v -0.80078 z m 7.16797,-1.48438 v 12.48047 h -3.59375 v -3.32031 q -1.23047,1.99219 -3.06641,2.94922 -1.83594,0.9375 -4.49219,0.9375 -3.35937,0 -5.35156,-1.875 -1.97266,-1.89453 -1.97266,-5.0586 0,-3.6914 2.46094,-5.5664 2.48047,-1.875 7.38281,-1.875 h 5.03907 v -0.35156 q 0,-2.48047 -1.64063,-3.82813 -1.62109,-1.36719 -4.57031,-1.36719 -1.875,0 -3.65234,0.44922 -1.77735,0.44922 -3.41797,1.34766 v -3.32031 q 1.97265,-0.76172 3.82812,-1.13282 1.85547,-0.39062 3.61328,-0.39062 4.7461,0 7.08985,2.46094 2.34375,2.46093 2.34375,7.46093 z"
         style="fill:#ba2121;fill-opacity:1"
         id="path860" />
      <path
         d="m 458.93359,207.9668 q -0.60547,-0.35157 -1.32812,-0.50782 -0.70313,-0.17578 -1.5625,-0.17578 -3.04688,0 -4.6875,1.99219 -1.6211,1.97266 -1.6211,5.68359 v 11.52344 h -3.61328 v -21.875 h 3.61328 v 3.39844 q 1.13282,-1.99219 2.94922,-2.94922 1.81641,-0.97656 4.41407,-0.97656 0.37109,0 0.82031,0.0586 0.44922,0.0391 0.99609,0.13672 z"
         style="fill:#ba2121;fill-opacity:1"
         id="path862" />
      <path
         d="m 462.60547,196.0918 h 3.61328 v 17.94922 l 10.72266,-9.4336 h 4.58984 l -11.60156,10.23438 12.08984,11.64062 h -4.6875 l -11.11328,-10.68359 v 10.68359 h -3.61328 z"
         style="fill:#ba2121;fill-opacity:1"
         id="path864" />
      <path
         d="m 498.83594,197.32227 h 16.75781 v 3.32031 h -12.8125 v 8.59375 h 11.5625 v 3.32031 h -11.5625 v 13.92578 h -3.94531 z"
         style="fill:#ba2121;fill-opacity:1"
         id="path866" />
      <path
         d="m 528.79687,207.12695 q -2.89062,0 -4.57031,2.26563 -1.67969,2.24609 -1.67969,6.17187 0,3.92578 1.66016,6.19141 1.67969,2.24609 4.58984,2.24609 2.8711,0 4.55079,-2.26562 1.67968,-2.26563 1.67968,-6.17188 0,-3.88672 -1.67968,-6.15234 -1.67969,-2.28516 -4.55079,-2.28516 z m 0,-3.04687 q 4.6875,0 7.36329,3.04687 2.67578,3.04688 2.67578,8.4375 0,5.3711 -2.67578,8.4375 -2.67579,3.04688 -7.36329,3.04688 -4.70703,0 -7.38281,-3.04688 -2.65625,-3.0664 -2.65625,-8.4375 0,-5.39062 2.65625,-8.4375 2.67578,-3.04687 7.38281,-3.04687 z"
         style="fill:#ba2121;fill-opacity:1"
         id="path868" />
      <path
         d="m 557.44922,207.9668 q -0.60547,-0.35157 -1.32813,-0.50782 -0.70312,-0.17578 -1.5625,-0.17578 -3.04687,0 -4.6875,1.99219 -1.62109,1.97266 -1.62109,5.68359 v 11.52344 h -3.61328 v -21.875 H 548.25 v 3.39844 q 1.13281,-1.99219 2.94922,-2.94922 1.8164,-0.97656 4.41406,-0.97656 0.37109,0 0.82031,0.0586 0.44922,0.0391 0.9961,0.13672 z"
         style="fill:#ba2121;fill-opacity:1"
         id="path870" />
      <path
         d="m 579.10937,214.64648 v 1.75782 h -16.52343 q 0.23437,3.71093 2.22656,5.66406 2.01172,1.93359 5.58594,1.93359 2.07031,0 4.0039,-0.50781 1.95313,-0.50781 3.86719,-1.52344 v 3.39844 q -1.93359,0.82031 -3.96484,1.25 -2.03125,0.42969 -4.1211,0.42969 -5.23437,0 -8.30078,-3.04688 -3.04687,-3.04687 -3.04687,-8.24218 0,-5.3711 2.89062,-8.51563 2.91016,-3.16406 7.83203,-3.16406 4.41407,0 6.97266,2.85156 2.57812,2.83203 2.57812,7.71484 z m -3.59375,-1.05468 q -0.0391,-2.94922 -1.66015,-4.70703 -1.60156,-1.75782 -4.25781,-1.75782 -3.00782,0 -4.82422,1.69922 -1.79688,1.69922 -2.07032,4.78516 z"
         style="fill:#ba2121;fill-opacity:1"
         id="path872" />
      <path
         d="m 598.95312,205.25195 v 3.39844 q -1.52343,-0.78125 -3.16406,-1.17187 -1.64062,-0.39063 -3.39844,-0.39063 -2.67578,0 -4.02343,0.82031 -1.32813,0.82032 -1.32813,2.46094 0,1.25 0.95703,1.97266 0.95703,0.70312 3.84766,1.34765 l 1.23047,0.27344 q 3.82812,0.82031 5.42969,2.32422 1.62109,1.48437 1.62109,4.16016 0,3.04687 -2.42188,4.82421 -2.40234,1.77735 -6.62109,1.77735 -1.75781,0 -3.67187,-0.35156 -1.89454,-0.33204 -4.00391,-1.01563 v -3.71094 q 1.99219,1.03516 3.92578,1.5625 1.93359,0.50782 3.82813,0.50782 2.53906,0 3.90625,-0.85938 1.36718,-0.87891 1.36718,-2.46094 0,-1.46484 -0.99609,-2.24609 -0.97656,-0.78125 -4.31641,-1.50391 l -1.25,-0.29297 q -3.33984,-0.70312 -4.82422,-2.14843 -1.48437,-1.46485 -1.48437,-4.00391 0,-3.08594 2.1875,-4.76562 2.1875,-1.67969 6.21094,-1.67969 1.99218,0 3.75,0.29297 1.75781,0.29297 3.24218,0.8789 z"
         style="fill:#ba2121;fill-opacity:1"
         id="path874" />
      <path
         d="m 609.42187,198.39648 v 6.21094 h 7.40235 v 2.79297 h -7.40235 v 11.875 q 0,2.67578 0.72266,3.4375 0.74219,0.76172 2.98828,0.76172 h 3.69141 v 3.00781 h -3.69141 q -4.16015,0 -5.74219,-1.54297 -1.58203,-1.5625 -1.58203,-5.66406 v -11.875 h -2.63672 v -2.79297 h 2.63672 v -6.21094 z"
         style="fill:#ba2121;fill-opacity:1"
         id="path876" />
      <path
         d="m 624.96875,197.32227 v 10.83984 h -3.32031 v -10.83984 z"
         style="fill:#ba2121;fill-opacity:1"
         id="path878" />
    </g>
    <text
       xml:space="preserve"
       style="font-style:normal;font-weight:normal;font-size:10.58333302px;line-height:1.25;font-family:sans-serif;letter-spacing:0px;word-spacing:0px;fill:#000000;fill-opacity:1;stroke:none;stroke-width:0.26458332"
       x="23.350048"
       y="47.49791"
       id="text841"><tspan
         sodipodi:role="line"
         id="tspan839"
         x="23.350048"
         y="47.49791"
         style="font-size:8.46666622px;stroke-width:0.26458332">variable name</tspan></text>
    <path
       style="opacity:1;vector-effect:none;fill:none;fill-opacity:1;stroke:#b3b3b3;stroke-width:0.52899998;stroke-linecap:round;stroke-linejoin:round;stroke-miterlimit:4;stroke-dasharray:none"
       d="m 29.897916,62.050001 v -5.027084 h 50.8 V 62.0821"
       id="path845"
       inkscape:connector-curvature="0"
       sodipodi:nodetypes="cccc" />
    <path
       style="opacity:1;vector-effect:none;fill:#ffffff;fill-opacity:1;stroke:#b3b3b3;stroke-width:0.52899998;stroke-linecap:round;stroke-linejoin:round;stroke-miterlimit:4;stroke-dasharray:none"
       d="M 53.694448,56.591059 V 50.417134"
       id="path847"
       inkscape:connector-curvature="0" />
    <text
       xml:space="preserve"
       style="font-style:normal;font-weight:normal;font-size:10.58333302px;line-height:1.25;font-family:sans-serif;letter-spacing:0px;word-spacing:0px;fill:#000000;fill-opacity:1;stroke:none;stroke-width:0.26458332"
       x="161.98041"
       y="104.95309"
       id="text841-3"><tspan
         sodipodi:role="line"
         id="tspan839-6"
         x="161.98041"
         y="104.95309"
         style="font-size:8.46666622px;stroke-width:0.26458332">value</tspan></text>
    <path
       style="opacity:1;vector-effect:none;fill:none;fill-opacity:1;stroke:#b3b3b3;stroke-width:0.52899998;stroke-linecap:round;stroke-linejoin:round;stroke-miterlimit:4;stroke-dasharray:none"
       d="m 94.445393,85.150187 v 5.02705 h 91.545837 v -5.05915"
       id="path845-7"
       inkscape:connector-curvature="0"
       sodipodi:nodetypes="cccc" />
    <path
       style="opacity:1;vector-effect:none;fill:#ffffff;fill-opacity:1;stroke:#b3b3b3;stroke-width:0.52899998;stroke-linecap:round;stroke-linejoin:round;stroke-miterlimit:4;stroke-dasharray:none"
       d="m 173.27538,90.609094 v 6.173897"
       id="path847-5"
       inkscape:connector-curvature="0" />
  </g>
</svg>
